<svg fill="none" viewBox="0 0 72 72" xmlns="http://www.w3.org/2000/svg">
  <path d="M36.021 7.2a3.9 3.9 0 0 1 3.905 3.905v3.904H32.1v-3.904A3.923 3.923 0 0 1 36.02 7.2Z" fill="url(#a)"/>
  <path d="M36.021 7.2c-.336 0-.64.048-.96.112 1.696.432 2.96 1.968 2.96 3.793v3.904h1.904v-3.904c.017-2.16-1.744-3.905-3.904-3.905Z" fill="url(#b)"/>
  <path d="M61.256 53.813c.08-2.608-1.712-4.625-4.833-8.273-3.12-3.648-3.44-3.872-4.4-16.337-.848-10.946-5.68-14.514-11.49-16.306a15.292 15.292 0 0 0-4.496-.656c-1.52 0-3.04.208-4.496.656-5.825 1.808-10.641 5.376-11.49 16.322-.96 12.465-1.296 12.673-4.4 16.337-3.104 3.665-4.928 5.649-4.848 8.257h50.453Z" fill="url(#c)"/>
  <path d="M16.211 44.884c-.176.208-.368.432-.56.672-3.12 3.649-4.928 5.649-4.848 8.257H61.24c.08-2.608-1.712-4.624-4.833-8.273-.208-.24-.384-.448-.56-.672-5.232-1.824-12.193-2.944-19.826-2.944-7.633 0-14.577 1.12-19.81 2.96Z" fill="url(#d)"/>
  <path d="M36.021 61.91c13.928 0 25.219-1.605 25.219-3.584 0-1.98-11.29-3.585-25.219-3.585-13.928 0-25.218 1.605-25.218 3.585s11.29 3.584 25.218 3.584Z" fill="url(#e)"/>
  <path d="M36.021 50.229c-13.921 0-25.218 1.616-25.218 3.584v4.513c0-1.984 11.297-3.584 25.218-3.584 13.938 0 25.219 1.6 25.219 3.584v-4.513c.016-1.968-11.281-3.584-25.219-3.584Z" fill="url(#f)"/>
  <path d="M61.256 53.813c.08-2.608-1.712-4.625-4.833-8.273-3.12-3.648-3.44-3.872-4.4-16.337-.848-10.946-5.68-14.514-11.49-16.306a15.291 15.291 0 0 0-4.496-.656c9.537 1.824 9.057 11.505 9.057 19.474 0 7.969 1.696 10.4 6.529 13.057 3.056 1.68 3.6 6.049 3.584 9.041h6.049Z" fill="url(#g)"/>
  <path d="M41.462 59.11c.992 3.648 3.424 6.16 5.456 5.616 2.032-.544 2.88-3.952 1.888-7.6a13.316 13.316 0 0 0-.704-1.953c-2.144-.16-4.48-.288-6.944-.368-.208 1.264-.112 2.769.304 4.305Z" fill="url(#h)"/>
  <path d="M48.087 55.173c-2.145-.16-4.48-.288-6.945-.368-.128.832-.128 1.776 0 2.752 3.856-1.152 8.049.752 8.049 2.737 0 .08 0 .144.016.192.048-1.04-.08-2.192-.4-3.377a12.698 12.698 0 0 0-.72-1.936Z" fill="url(#i)"/>
  <path d="M61.256 53.813c.08-2.608-1.712-4.625-4.833-8.273-3.12-3.648-3.44-3.872-4.4-16.337-.848-10.946-5.68-14.514-11.49-16.306a15.292 15.292 0 0 0-4.496-.656c-1.52 0-3.04.208-4.496.656-5.825 1.808-10.641 5.376-11.49 16.322-.96 12.465-1.296 12.673-4.4 16.337-3.104 3.665-4.928 5.649-4.848 8.257h50.453Z" fill="url(#j)"/>
  <path d="M61.256 53.813c.08-2.608-1.712-4.625-4.833-8.273-3.12-3.648-3.44-3.872-4.4-16.337-.848-10.946-5.68-14.514-11.49-16.306a15.292 15.292 0 0 0-4.496-.656c-1.52 0-3.04.208-4.496.656-5.825 1.808-10.641 5.376-11.49 16.322-.96 12.465-1.296 12.673-4.4 16.337-3.104 3.665-4.928 5.649-4.848 8.257h50.453Z" fill="url(#k)"/>
  <path d="M36.021 50.229c-13.921 0-25.218 1.616-25.218 3.584v4.513c0-1.984 11.297-3.584 25.218-3.584 13.938 0 25.219 1.6 25.219 3.584v-4.513c.016-1.968-11.281-3.584-25.219-3.584Z" fill="url(#l)"/>
  <defs>
    <radialGradient cx="0" cy="0" gradientTransform="translate(34.82 11.867) scale(6.02729)" gradientUnits="userSpaceOnUse" id="b" r="1">
      <stop offset=".454" stop-color="#C86F34" stop-opacity="0"/>
      <stop offset=".668" stop-color="#C66D33" stop-opacity=".446"/>
      <stop offset=".784" stop-color="#BE672E" stop-opacity=".687"/>
      <stop offset=".876" stop-color="#B05E26" stop-opacity=".88"/>
      <stop offset=".934" stop-color="#A3541E"/>
    </radialGradient>
    <radialGradient cx="0" cy="0" gradientTransform="matrix(-6.8442 40.50665 -29.66108 -5.01168 30.337 22.055)" gradientUnits="userSpaceOnUse" id="c" r="1">
      <stop stop-color="#FCCE38"/>
      <stop offset=".364" stop-color="#FCCE38"/>
      <stop offset="1" stop-color="#C86F34"/>
    </radialGradient>
    <radialGradient cx="0" cy="0" gradientTransform="matrix(47.24433 1.0984 -.25579 11.00183 30.709 52.864)" gradientUnits="userSpaceOnUse" id="d" r="1">
      <stop stop-color="#FBE07A"/>
      <stop offset=".219" stop-color="#FBDE73" stop-opacity=".781"/>
      <stop offset=".527" stop-color="#FBD961" stop-opacity=".473"/>
      <stop offset=".887" stop-color="#FCD143" stop-opacity=".113"/>
      <stop offset="1" stop-color="#FCCE38" stop-opacity="0"/>
    </radialGradient>
    <radialGradient cx="0" cy="0" gradientTransform="translate(48.223 56.126) scale(16.9027)" gradientUnits="userSpaceOnUse" id="h" r="1">
      <stop stop-color="#A3541E"/>
      <stop offset=".552" stop-color="#FCCE38"/>
      <stop offset="1" stop-color="#FF9D00"/>
    </radialGradient>
    <radialGradient cx="0" cy="0" gradientTransform="matrix(-2.73017 16.15817 -6.77299 -1.1444 28.897 25.495)" gradientUnits="userSpaceOnUse" id="j" r="1">
      <stop stop-color="#FBE07A" stop-opacity=".75"/>
      <stop offset=".08" stop-color="#FBE387" stop-opacity=".69"/>
      <stop offset=".517" stop-color="#FDF2C7" stop-opacity=".362"/>
      <stop offset=".836" stop-color="#FFFBF0" stop-opacity=".123"/>
      <stop offset="1" stop-color="#fff" stop-opacity="0"/>
    </radialGradient>
    <radialGradient cx="0" cy="0" gradientTransform="matrix(-2.73017 16.15817 -6.77299 -1.1444 28.897 25.495)" gradientUnits="userSpaceOnUse" id="k" r="1">
      <stop stop-color="#FBE07A" stop-opacity=".75"/>
      <stop offset=".08" stop-color="#FBE387" stop-opacity=".69"/>
      <stop offset=".517" stop-color="#FDF2C7" stop-opacity=".362"/>
      <stop offset=".836" stop-color="#FFFBF0" stop-opacity=".123"/>
      <stop offset="1" stop-color="#fff" stop-opacity="0"/>
    </radialGradient>
    <linearGradient gradientUnits="userSpaceOnUse" id="a" x1="41.973" x2="29.081" y1="19.651" y2="3.858">
      <stop stop-color="#A3541E"/>
      <stop offset=".552" stop-color="#FCCE38"/>
      <stop offset="1" stop-color="#FF9D00"/>
    </linearGradient>
    <linearGradient gradientUnits="userSpaceOnUse" id="e" x1="38.461" x2="26.214" y1="48.531" y2="97.843">
      <stop stop-color="#3C2200"/>
      <stop offset="1" stop-color="#FF9D00"/>
    </linearGradient>
    <linearGradient gradientUnits="userSpaceOnUse" id="f" x1="54.855" x2="7.72" y1="57.211" y2="52.135">
      <stop stop-color="#A3541E"/>
      <stop offset=".552" stop-color="#FCCE38"/>
      <stop offset="1" stop-color="#FF9D00"/>
    </linearGradient>
    <linearGradient gradientUnits="userSpaceOnUse" id="g" x1="61.869" x2="34.905" y1="29.951" y2="36.228">
      <stop stop-color="#A3541E"/>
      <stop offset=".12" stop-color="#B05E26" stop-opacity=".88"/>
      <stop offset=".313" stop-color="#BE672E" stop-opacity=".687"/>
      <stop offset=".554" stop-color="#C66D33" stop-opacity=".446"/>
      <stop offset="1" stop-color="#C86F34" stop-opacity="0"/>
    </linearGradient>
    <linearGradient gradientUnits="userSpaceOnUse" id="i" x1="51.16" x2="34.83" y1="53.095" y2="65.558">
      <stop stop-color="#3C2200"/>
      <stop offset="1" stop-color="#FF9D00"/>
    </linearGradient>
    <linearGradient gradientUnits="userSpaceOnUse" id="l" x1="54.855" x2="7.72" y1="57.211" y2="52.135">
      <stop stop-color="#A3541E"/>
      <stop offset=".552" stop-color="#FCCE38"/>
      <stop offset="1" stop-color="#FF9D00"/>
    </linearGradient>
  </defs>
</svg>
