<svg fill="none" viewBox="0 0 72 72" xmlns="http://www.w3.org/2000/svg">
  <path d="M32.033 38.124c-1.916 2.833-4.632 4.344-6.068 3.372-1.437-.971-1.047-4.053.869-6.887 1.915-2.833 4.631-4.344 6.067-3.373 1.437.972 1.047 4.054-.868 6.888Z" fill="url(#a)"/>
  <path d="M32.033 38.124c-1.916 2.833-4.632 4.344-6.068 3.372-1.437-.971-1.047-4.053.869-6.887 1.915-2.833 4.631-4.344 6.067-3.373 1.437.972 1.047 4.054-.868 6.888Z" fill="url(#b)"/>
  <path d="M55.273 54.593c-3.83 0-3.994 2.933-8.558 2.933s-7.008-1.876-11.246-4.4c-3.536-2.107-7.689-1.671-9.87-2.11l2.93 1.159s1.745 3.88 6.344 6.192c6.668 3.355 14.566-.507 17.999-.273 4.273.294 9.56 1.227 10.543 1.152-.486-.386-.89-4.653-8.142-4.653Z" fill="url(#c)"/>
  <path d="M55.273 54.593c-3.83 0-3.994 2.933-8.558 2.933s-7.008-1.876-11.246-4.4c-3.536-2.107-7.689-1.671-9.87-2.11l2.93 2.46s1.745 2.575 6.344 4.891c6.668 3.355 14.566-.507 17.999-.273 4.273.294 9.56 1.227 10.543 1.152-.486-.386-.89-4.653-8.142-4.653Z" fill="url(#d)"/>
  <path d="M55.273 54.594c-3.83 0-3.994 2.932-8.558 2.932s-7.008-1.876-11.246-4.4c-3.536-2.107-7.689-1.671-9.87-.806l2.93 1.16s1.042 1.521 3.607 3.273c.308-.23.457.625.379-.12-.674-6.465 6.057 1.691 12.086 1.528 6.77-.173 10.672-3.567 10.672-3.567Z" fill="url(#e)"/>
  <path d="M16.19 45.55 9.084 55.81c-.617.89-2.464 5.504-3.624 8.466-.277.709.479 1.23 1.043.72 2.326-2.09 5.943-5.356 6.809-6.26l7.55-10.895c-2.156-.042-3.986-.599-4.67-2.29Z" fill="url(#f)"/>
  <path d="M5.523 64.95c.202.28.627.361.979.045 2.326-2.088 5.943-5.355 6.809-6.26l7.55-10.894A9.576 9.576 0 0 1 19 47.628l-6.546 9.434c-.44.436-3.11 4.185-6.93 7.887Z" fill="url(#g)"/>
  <path d="M16.825 46.6c-.493-.34-.393-.45-.634-1.05L9.082 55.81c-.617.89-2.464 5.504-3.624 8.466-.277.709 3.997-7.044 4.54-7.831l6.826-9.845Z" fill="url(#h)"/>
  <path d="M25.581 56.633c2.827 3.152 5.324 3.965 7.66 3.965 2.338 0 2.827-1.142 2.338-1.983-.49-.84-1.901-2.525-4.128-2.851-2.227-.327-4.128-5.38-4.128-5.38l-2.77-.053-2.607 3.259 3.635 3.043Z" fill="url(#i)"/>
  <path d="M25.581 56.633c2.827 3.152 5.324 3.965 7.66 3.965 2.338 0 2.827-1.142 2.338-1.983-.49-.84-1.901-2.525-4.128-2.851-2.227-.327-4.128-5.38-4.128-5.38l-2.77-.053-2.607 3.259 3.635 3.043Z" fill="url(#j)"/>
  <path d="M26.805 57.423c-.968-1.819.468-3.206 2.415-3.429-1.131-1.571-1.9-3.61-1.9-3.61l-2.77-.053-1.423 1.776-.177.508s4.969 6.9 3.855 4.808Z" fill="url(#k)"/>
  <path d="M27.32 50.384c.528 1.092 1.056 2.18 1.748 3.17.684.947 1.475 2 2.677 2.1 1.227.248 2.337.943 3.157 1.862.376.479.837.936.922 1.606.039.703-.6 1.15-1.163 1.288.56-.188 1.099-.681 1.003-1.273-.092-.554-.564-1.018-.947-1.447-.826-.848-1.876-1.504-3.035-1.717-.607-.06-1.242-.404-1.67-.837a7.277 7.277 0 0 1-1.154-1.447c-.322-.521-.61-1.06-.868-1.61-.245-.557-.447-1.135-.67-1.695Z" fill="#804B24"/>
  <path d="M20.744 57.122c.816 2.827 4.185 4.834 6.518 4.618 1.462-.135 1.848-2.39.11-4.129-1.737-1.737-2.83-4.737-2.83-4.737l-1.57-4.877-2.444 6.249-1.575 3.37 1.791-.494Z" fill="url(#l)"/>
  <path d="M20.744 57.122c.816 2.827 4.185 4.834 6.518 4.618 1.462-.135 1.848-2.39.11-4.129-1.737-1.737-2.83-4.737-2.83-4.737l-1.57-4.877-2.444 6.249-1.575 3.37 1.791-.494Z" fill="url(#m)"/>
  <path d="M25.844 55.558c-.82-1.386-1.302-2.688-1.302-2.688l-.798-2.479-1.77.153-1.446 3.699-.827 1.766.55 1.248.493-.135c.372 1.288 1.284 2.39 2.373 3.203-1.146-2.086.649-4.476 2.727-4.767Z" fill="url(#n)"/>
  <path d="M28.518 60.275c-.018-.947-.5-1.791-1.128-2.44-.68-.663-1.206-1.479-1.663-2.298a31.437 31.437 0 0 1-2.266-5.157c.808 1.692 1.613 3.384 2.535 5 .483.795.94 1.604 1.6 2.26.649.713 1.064 1.692.922 2.635Z" fill="#804B24"/>
  <path d="M14.893 56.352c0 2.526 3.188 5.388 5.092 5.388 1.905 0 1.958-2.554 1.632-3.533-.327-.979-.805-3.131-.805-3.131l-1.639-1.053-4.28 2.33Z" fill="url(#o)"/>
  <path d="M14.893 56.352c0 2.526 3.188 5.388 5.092 5.388 1.905 0 1.958-2.554 1.632-3.533-.327-.979-.805-3.131-.805-3.131l-1.639-1.053-4.28 2.33Z" fill="url(#p)"/>
  <path d="M21.134 56.459a95.998 95.998 0 0 1-.326-1.383l-1.638-1.053-4.277 2.33c0 1.546 1.195 3.213 2.56 4.276-.383-2.142 2.238-3.564 3.681-4.17Z" fill="url(#q)"/>
  <path d="M21.514 60.687c.174-.632.16-1.277.078-1.898-.103-.592-.372-1.234-.49-1.865a42.442 42.442 0 0 1-.759-3.827c.39 1.241.727 2.497 1.054 3.752.145.642.386 1.21.479 1.905.06.666-.04 1.358-.362 1.933Z" fill="#804B24"/>
  <path d="M11.562 52.505c.068 2.866 2.717 4.046 4.834 4.046 2.117 0 6.596-2.539 8.143-3.68 1.55-1.143 6.688-2.27 10.926.255s6.682 4.4 11.246 4.4c4.565 0 4.728-2.932 8.558-2.932 8.068 0 7.66 5.298 8.313 4.646.652-.653 3.014-6.11 3.014-11.328 0-3.45-.823-5.28-1.376-7-.245-.76-.99-1.206-1.78-1.11-5.674.684-14.08-6.288-19.825-9.086-6.192-3.015-11.246-6.193-14.994-6.193-3.749 0-15.892 6.764-17.442 8.313-1.55 1.55-2.199 3.341-2.199 5.544 0 2.202-1.386 7.415-1.386 11.898 0 3.585.886 4.926 2.156 4.156.32-.195.663-.521 1.021-.978.114-.132.795-.738.791-.951 0-1.713 1.33-3.922 3.628-5.905.33-.284.6-1.081.827-1.702 0 0 .652-3.096 1.305-4.511.652-1.412 1.631-2.28 3.152-2.607 4.334-.93 7.608-6.575 9.782-5.27 2.174 1.305-.11 6.31-4.458 7.83-4.348 1.522-6.629 3.253-9.561 5.427-2.933 2.174-4.675 4.78-4.675 6.738Z" fill="url(#r)"/>
  <path d="M63.44 39.801c-5.674.685-14.08-6.287-19.825-9.086-4.646-2.262-8.65-4.613-11.94-5.65l-1.423 7.445c.44.262.678.62.752 1.032.064.234.078.493.067.766l-.003.085a3.99 3.99 0 0 1-.16.869c4.813-5.245 7.841-5.703 10.622-4.568 4.738 1.933 10.026 9.863 16.463 9.863 6.408 0 8.103 3.787 8.117 3.812a30.256 30.256 0 0 0-.886-3.454 1.606 1.606 0 0 0-.685-.876 1.724 1.724 0 0 0-1.07-.234c-.011 0-.018-.004-.029-.004Z" fill="url(#s)"/>
  <path d="M43.619 30.715c-3.508-1.706-6.646-3.465-9.395-4.67l-2.961 6.582c1.064-.915 3.241-1.518 7.71-.362 9.129 2.362 14.26 14.994 18.906 14.806 4.189-.17 4.022-3.042 8.427-1.578a30.15 30.15 0 0 0-1.082-4.582c-.12-.38-.369-.68-.685-.876a1.702 1.702 0 0 0-1.095-.234c-5.678.685-14.084-6.288-19.825-9.086Z" fill="url(#t)"/>
  <path d="M30.252 32.51c2.174 1.305-.11 6.309-4.458 7.83-3.28 1.15-5.387 2.42-7.483 3.905 2.816-1.681 6.026-1.9 8.466-3.092 5.837-2.848 5.894-9.264 5.894-9.264l-2.419.62Z" fill="url(#u)"/>
  <path d="M28.62 24.523c-3.748 0-15.891 6.764-17.44 8.313-1.55 1.55-2.2 3.341-2.2 5.544 0 2.202-1.386 7.415-1.386 11.898 0 .539.021 1.021.06 1.461.922-4.71 1.766-16.009 4.323-18.19 3.15-2.688 14.072-9.047 18.878-8.313.475.071.84.036 1.156-.053-1.223-.415-2.358-.66-3.39-.66Z" fill="url(#v)"/>
  <path d="M65.224 40.911c-.245-.758-.99-1.205-1.78-1.11-4.838.582-11.654-4.748-17.12-7.685-.017 3.44.288 6.958-.23 10.069-2.27 7.376-7.749 9.32-14.398 9.593 1.262.209 2.553.624 3.773 1.351 4.238 2.525 6.681 4.401 11.246 4.401 4.564 0 4.727-2.933 8.557-2.933 8.069 0 7.66 5.299 8.313 4.646.653-.652 3.015-6.11 3.015-11.327 0-3.455-.823-5.284-1.376-7.005Z" fill="url(#w)"/>
  <path d="M30.834 33.077c.05.082.081.17.11.26l.319-.71a2.99 2.99 0 0 0-.43.45Z" fill="url(#x)"/>
  <path d="M16.017 44.898s.652-3.096 1.305-4.511c.652-1.412 1.631-2.28 3.153-2.607.74-.16 1.447-.461 2.124-.837 3.032-3.025 6.859-10.083 5.67-8.816-7.546 8.029-7.518 6.234-10.695 9.412-3.178 3.177-2.242 6.724-3.912 8.394-1.454 1.454-4.238 4.92-3.908 8.494.319-.191.663-.514 1.025-.972.11-.13.794-.734.787-.95 0 0-.124-1.093.88-2.73.007-.012.017-.022.024-.033.621-1.042 1.543-2.12 2.724-3.139.11-.152.216-.315.326-.475.185-.365.351-.83.497-1.23Z" fill="url(#y)"/>
  <path d="M63.585 59.24c.252-.252.76-1.228 1.288-2.622-5.214-6.557-11.498-4.862-13.378-3.245-1.957 1.685-5.27 3.64-9.344 1.958-4.075-1.684-5.487-7.334-11.083-7.334-5.597 0-9.618 3.504-12.225 4.81-2.28 1.141-4.525 1.067-7.206-1.228l-.075.93c.071 3.028 2.884 4.046 4.834 4.046 2.117 0 6.596-2.54 8.143-3.681 1.55-1.143 6.688-2.27 10.926.255s6.682 4.401 11.246 4.401c4.565 0 4.728-2.933 8.558-2.933 8.072-.004 7.664 5.295 8.316 4.642Z" fill="url(#z)"/>
  <path d="M63.585 59.24c.217-.217.621-.983 1.064-2.072-.56-1.032-1.603-1.89-3.316-2.436-9.21-2.933-9.21 1.958-16.136 2.156-6.926.202-9.129-7.128-13.04-7.128-8.629 0-12.998 6.34-19.052 5.76.982.723 2.252 1.024 3.291 1.024 2.117 0 6.596-2.54 8.143-3.681 1.55-1.142 6.688-2.27 10.926.255s6.682 4.401 11.246 4.401c4.565 0 4.728-2.932 8.558-2.932 8.072.007 7.664 5.305 8.316 4.652Z" fill="url(#A)"/>
  <path d="M15.19 46.6c-.003.004-.007.007-.01.007.007-.003.007-.003.01-.007Z" fill="url(#B)"/>
  <path d="M33.022 37.745c2.04-.38 3.085-1.277 4.738-1.582 1.653-.305 9.097-1.007 9.728 2.568.631 3.574-4.575 5.617-7.621 7.128-3.047 1.51-10.87.73-11.87-2.107s1.819-5.412 5.025-6.007Z" fill="url(#C)"/>
  <path d="M19.616 35.883c-.996 1.103-2.617.929-3.422 1.819-.805.89-3.553 9.636-5.469 7.848-1.915-1.787-.106-8.015.969-10.203 1.074-2.188 10.242-8.054 12.047-6.855 1.802 1.199-2.56 5.66-4.125 7.39Z" fill="url(#D)"/>
  <path d="M47.357 8.589c-.266-.454-.72-1.078-1.383-1.54-.66-.457-1.387-.652-1.898-.737-.38-.064-.783.124-1.028.479L16.187 45.55c.025.063.064.113.092.173.17-.128.326-.266.49-.397l-.089.106c2.724-2.018 4.993-3.653 9.114-5.096.132-.046.252-.114.38-.163l1.638-2.366 19.46-28.08c.252-.355.284-.806.085-1.139Z" fill="url(#E)"/>
  <path d="M19.258 43.085 43.438 8.15c.674-1.113.968-1.784.642-1.837-.38-.064-.784.124-1.029.479l-26.86 38.76c.031.077.046.13.07.194 1.075-.798 2.018-1.727 2.997-2.66Z" fill="url(#F)"/>
  <path d="M47.275 9.727c.029-.042.046-.092.071-.138.075-.142.128-.291.139-.44a.957.957 0 0 0-.128-.56l-.01-.018a5.231 5.231 0 0 0-.632-.855L23.41 41.294c.73-.326 1.51-.645 2.387-.95.131-.046.252-.114.38-.163l1.638-2.366 19.46-28.088Z" fill="url(#G)"/>
  <path d="M55.273 54.594c-1.203 0-2.377.39-3.352 1.081-.975.67-1.975 1.398-3.163 1.689-2.366.525-4.855.188-7.097-.678-2.241-.9-4.234-2.266-6.295-3.461-2.039-1.202-4.482-1.62-6.827-1.4-1.17.105-2.35.354-3.4.864-.98.596-2 1.32-3.054 1.866-1.053.574-2.135 1.103-3.26 1.532-1.106.433-2.361.745-3.564.457-1.184-.23-2.358-.812-3.078-1.822a3.874 3.874 0 0 1-.486-3.5c.82-2.31 2.642-4.044 4.54-5.459-1.866 1.454-3.642 3.238-4.387 5.504a3.717 3.717 0 0 0 .486 3.341c.688.954 1.819 1.507 2.964 1.72 1.167.266 2.334-.035 3.437-.472 1.107-.429 2.174-.964 3.217-1.542 1.063-.564 1.996-1.245 3.05-1.894 1.102-.543 2.301-.809 3.507-.922 2.405-.21 4.905.237 6.994 1.49 2.06 1.216 4.035 2.588 6.238 3.493 2.192.872 4.663 1.212 6.976.723 1.166-.259 2.163-.947 3.163-1.603a5.88 5.88 0 0 1 3.39-1.007ZM30.844 33.44c.096.283.146.58.132.882-.192 1.834-1.433 3.426-2.855 4.547-1.408 1.22-3.323 1.574-5.008 2.425-1.713.784-3.309 1.802-4.798 2.948 1.56-1.04 3.184-1.983 4.887-2.749.854-.38 1.727-.716 2.61-1.018a8.582 8.582 0 0 0 2.507-1.35c1.454-1.196 2.7-2.842 2.87-4.792a2.512 2.512 0 0 0-.196-1.114l-.149.22Z" fill="#804B24"/>
  <defs>
    <linearGradient gradientUnits="userSpaceOnUse" id="a" x1="33.07" x2="14.046" y1="40.182" y2="20.267">
      <stop offset=".001" stop-color="#FFCB4B"/>
      <stop offset="1" stop-color="#FFD748"/>
    </linearGradient>
    <linearGradient gradientUnits="userSpaceOnUse" id="b" x1="27.884" x2="30.206" y1="59.282" y2="24.931">
      <stop stop-color="#FFBC47" stop-opacity="0"/>
      <stop offset="1" stop-color="#C86F34"/>
    </linearGradient>
    <linearGradient gradientUnits="userSpaceOnUse" id="c" x1="44.675" x2="44.89" y1="59.264" y2="64.407">
      <stop offset=".001" stop-color="#FFCB4B"/>
      <stop offset="1" stop-color="#FFD748"/>
    </linearGradient>
    <linearGradient gradientUnits="userSpaceOnUse" id="d" x1="47.243" x2="43.651" y1="71.907" y2="49.918">
      <stop stop-color="#FFBC47" stop-opacity="0"/>
      <stop offset="1" stop-color="#C86F34"/>
    </linearGradient>
    <linearGradient gradientUnits="userSpaceOnUse" id="e" x1="41.668" x2="40.36" y1="72.025" y2="52.337">
      <stop stop-color="#FFBC47" stop-opacity="0"/>
      <stop offset="1" stop-color="#C86F34"/>
    </linearGradient>
    <linearGradient gradientUnits="userSpaceOnUse" id="f" x1="2.661" x2="13.51" y1="46.913" y2="56.688">
      <stop offset=".001" stop-color="#0097D4"/>
      <stop offset=".237" stop-color="#0294D6"/>
      <stop offset=".444" stop-color="#0989DB"/>
      <stop offset=".641" stop-color="#1477E4"/>
      <stop offset=".83" stop-color="#245EF0"/>
      <stop offset="1" stop-color="#3640FF"/>
    </linearGradient>
    <linearGradient gradientUnits="userSpaceOnUse" id="g" x1="5.018" x2="12.897" y1="48.306" y2="56.106">
      <stop offset=".001" stop-color="#0097D4"/>
      <stop offset=".237" stop-color="#0294D6"/>
      <stop offset=".444" stop-color="#0989DB"/>
      <stop offset=".641" stop-color="#1477E4"/>
      <stop offset=".83" stop-color="#245EF0"/>
      <stop offset="1" stop-color="#3640FF"/>
    </linearGradient>
    <linearGradient gradientUnits="userSpaceOnUse" id="h" x1="8.205" x2="13.246" y1="53.183" y2="56.556">
      <stop stop-color="#0097D4" stop-opacity="0"/>
      <stop offset=".334" stop-color="#029AD7" stop-opacity=".334"/>
      <stop offset=".629" stop-color="#08A3E2" stop-opacity=".629"/>
      <stop offset=".907" stop-color="#13B2F4" stop-opacity=".907"/>
      <stop offset="1" stop-color="#17B9FC"/>
    </linearGradient>
    <linearGradient gradientUnits="userSpaceOnUse" id="i" x1="29.027" x2="29.244" y1="60.793" y2="66.008">
      <stop offset=".001" stop-color="#FFCB4B"/>
      <stop offset="1" stop-color="#FFD748"/>
    </linearGradient>
    <linearGradient gradientUnits="userSpaceOnUse" id="j" x1="29.469" x2="28.599" y1="77.64" y2="48.084">
      <stop stop-color="#FFBC47" stop-opacity="0"/>
      <stop offset="1" stop-color="#C86F34"/>
    </linearGradient>
    <linearGradient gradientUnits="userSpaceOnUse" id="k" x1="27.614" x2="26.229" y1="62.664" y2="54.189">
      <stop stop-color="#FFBC47" stop-opacity="0"/>
      <stop offset="1" stop-color="#C86F34"/>
    </linearGradient>
    <linearGradient gradientUnits="userSpaceOnUse" id="l" x1="23.829" x2="24.047" y1="61.009" y2="66.225">
      <stop offset=".001" stop-color="#FFCB4B"/>
      <stop offset="1" stop-color="#FFD748"/>
    </linearGradient>
    <linearGradient gradientUnits="userSpaceOnUse" id="m" x1="26.24" x2="21.567" y1="71.812" y2="47.363">
      <stop stop-color="#FFBC47" stop-opacity="0"/>
      <stop offset="1" stop-color="#C86F34"/>
    </linearGradient>
    <linearGradient gradientUnits="userSpaceOnUse" id="n" x1="23.175" x2="22.768" y1="62.401" y2="55.719">
      <stop stop-color="#FFBC47" stop-opacity="0"/>
      <stop offset="1" stop-color="#C86F34"/>
    </linearGradient>
    <linearGradient gradientUnits="userSpaceOnUse" id="o" x1="18.472" x2="18.689" y1="61.233" y2="66.448">
      <stop offset=".001" stop-color="#FFCB4B"/>
      <stop offset="1" stop-color="#FFD748"/>
    </linearGradient>
    <linearGradient gradientUnits="userSpaceOnUse" id="p" x1="20.387" x2="15.497" y1="66.439" y2="45.848">
      <stop stop-color="#FFBC47" stop-opacity="0"/>
      <stop offset="1" stop-color="#C86F34"/>
    </linearGradient>
    <linearGradient gradientUnits="userSpaceOnUse" id="q" x1="18.714" x2="18.008" y1="68.248" y2="56.349">
      <stop stop-color="#FFBC47" stop-opacity="0"/>
      <stop offset="1" stop-color="#C86F34"/>
    </linearGradient>
    <linearGradient gradientUnits="userSpaceOnUse" id="r" x1="68.992" x2="9.662" y1="70.293" y2="28.132">
      <stop offset=".001" stop-color="#FFCB4B"/>
      <stop offset="1" stop-color="#FFD748"/>
    </linearGradient>
    <linearGradient gradientUnits="userSpaceOnUse" id="t" x1="34.97" x2="56.92" y1="31.261" y2="41.693">
      <stop stop-color="#FFBB47" stop-opacity=".969"/>
      <stop offset=".003" stop-color="#FFBA47"/>
      <stop offset="1" stop-color="#FFD748" stop-opacity="0"/>
    </linearGradient>
    <linearGradient gradientUnits="userSpaceOnUse" id="u" x1="25.319" x2="26.46" y1="35.926" y2="49.943">
      <stop stop-color="#FFBB47" stop-opacity=".969"/>
      <stop offset=".003" stop-color="#FFBA47"/>
      <stop offset="1" stop-color="#FFD748" stop-opacity="0"/>
    </linearGradient>
    <linearGradient gradientUnits="userSpaceOnUse" id="v" x1="22.339" x2="8.403" y1="41.49" y2="24.621">
      <stop stop-color="#FFBB47" stop-opacity=".969"/>
      <stop offset=".003" stop-color="#FFBA47"/>
      <stop offset="1" stop-color="#FFD748" stop-opacity="0"/>
    </linearGradient>
    <linearGradient gradientUnits="userSpaceOnUse" id="x" x1="45.457" x2="33.722" y1="48.632" y2="35.837">
      <stop stop-color="#FFBB47" stop-opacity=".969"/>
      <stop offset=".003" stop-color="#FFBA47"/>
      <stop offset="1" stop-color="#FFD748" stop-opacity="0"/>
    </linearGradient>
    <linearGradient gradientUnits="userSpaceOnUse" id="y" x1="12.135" x2="23.762" y1="2.895" y2="66.68">
      <stop offset=".312" stop-color="#FFBC47" stop-opacity="0"/>
      <stop offset="1" stop-color="#FF8900"/>
    </linearGradient>
    <linearGradient gradientUnits="userSpaceOnUse" id="A" x1="49.664" x2="34.016" y1="27.081" y2="69.541">
      <stop offset=".312" stop-color="#FFBC47" stop-opacity="0"/>
      <stop offset="1" stop-color="#FF8900"/>
    </linearGradient>
    <linearGradient gradientUnits="userSpaceOnUse" id="B" x1="15.189" x2="15.186" y1="46.605" y2="46.603">
      <stop offset=".001" stop-color="#FFCB4B"/>
      <stop offset="1" stop-color="#FFD748"/>
    </linearGradient>
    <linearGradient gradientUnits="userSpaceOnUse" id="E" x1="21.076" x2="39.277" y1="19.665" y2="31.835">
      <stop offset=".001" stop-color="#0097D4"/>
      <stop offset=".237" stop-color="#0294D6"/>
      <stop offset=".444" stop-color="#0989DB"/>
      <stop offset=".641" stop-color="#1477E4"/>
      <stop offset=".83" stop-color="#245EF0"/>
      <stop offset="1" stop-color="#3640FF"/>
    </linearGradient>
    <linearGradient gradientUnits="userSpaceOnUse" id="G" x1="19.345" x2="39.991" y1="13.791" y2="27.863">
      <stop offset=".001" stop-color="#0097D4"/>
      <stop offset=".237" stop-color="#0294D6"/>
      <stop offset=".444" stop-color="#0989DB"/>
      <stop offset=".641" stop-color="#1477E4"/>
      <stop offset=".83" stop-color="#245EF0"/>
      <stop offset="1" stop-color="#3640FF"/>
    </linearGradient>
    <radialGradient cx="0" cy="0" gradientTransform="translate(63.04 8.693) scale(91.3051)" gradientUnits="userSpaceOnUse" id="s" r="1">
      <stop stop-color="#FFBC47" stop-opacity="0"/>
      <stop offset="1" stop-color="#FF8900"/>
    </radialGradient>
    <radialGradient cx="0" cy="0" gradientTransform="matrix(8.45668 -26.90119 19.12411 6.01187 53.393 46.026)" gradientUnits="userSpaceOnUse" id="w" r="1">
      <stop stop-color="#FFBB47" stop-opacity=".969"/>
      <stop offset=".003" stop-color="#FFBA47"/>
      <stop offset="1" stop-color="#FFD748" stop-opacity="0"/>
    </radialGradient>
    <radialGradient cx="0" cy="0" gradientTransform="translate(43.627 24.69) scale(100.328)" gradientUnits="userSpaceOnUse" id="z" r="1">
      <stop stop-color="#FFBC47" stop-opacity="0"/>
      <stop offset="1" stop-color="#FF8900"/>
    </radialGradient>
    <radialGradient cx="0" cy="0" gradientTransform="rotate(169.5 16.39 21.826) scale(7.16387 3.63923)" gradientUnits="userSpaceOnUse" id="C" r="1">
      <stop stop-color="#FBE07A"/>
      <stop offset=".265" stop-color="#FCDF73" stop-opacity=".735"/>
      <stop offset=".655" stop-color="#FDDB5F" stop-opacity=".345"/>
      <stop offset="1" stop-color="#FFD748" stop-opacity="0"/>
    </radialGradient>
    <radialGradient cx="0" cy="0" gradientTransform="matrix(4.82023 -5.32702 2.72687 2.46745 16.07 34.368)" gradientUnits="userSpaceOnUse" id="D" r="1">
      <stop stop-color="#FBE07A"/>
      <stop offset=".265" stop-color="#FCDF73" stop-opacity=".735"/>
      <stop offset=".655" stop-color="#FDDB5F" stop-opacity=".345"/>
      <stop offset="1" stop-color="#FFD748" stop-opacity="0"/>
    </radialGradient>
    <radialGradient cx="0" cy="0" gradientTransform="matrix(14.21975 -20.67347 .4428 .30457 35.192 18.962)" gradientUnits="userSpaceOnUse" id="F" r="1">
      <stop stop-color="#fff" stop-opacity=".5"/>
      <stop offset="1" stop-color="#fff" stop-opacity="0"/>
    </radialGradient>
  </defs>
</svg>
