<svg fill="none" viewBox="0 0 72 72" xmlns="http://www.w3.org/2000/svg">
  <path d="M46.959 31.578c.186-9.368-14.044-8.08-10.385-24.378 0 0-9.555 3.761-7.878 15.298.576 3.964-.813 6.929-.813 6.929-1.406.288-3.591-2.507-2.83-6.827 0 0-5.014 3.744-5.014 8.555s2.321 9.91 2.321 9.91c-5.777-1.253-5.2-9.046-5.2-9.046s-3.66 4.896-3.66 14.129c0 7.183 8.098 18.652 21.16 18.652 13.061 0 23.548-10.13 23.548-19.143 0-3.948-1.339-9.047-4.236-11.825 0 0 .39 7.877-3.506 7.505 0 0 3.218-10.284-.153-14.993 0 0-1.626 5.082-3.354 5.234Z" fill="url(#a)"/>
  <path d="M46.976 24.514c3.795-6.997-5.608-7.962-5.625-12.265 0 0-1.66 4.438 2.304 7.47 3.236 2.457 3.32 4.795 3.32 4.795Z" fill="url(#b)"/>
  <path d="M27.02 11.13c-1.44 1.423.541 7.302-3.965 9.623 0 0-1.525-6.455 3.964-9.623Z" fill="url(#c)"/>
  <path d="M16.465 34.374C15.21 36.526 13.5 40.507 13.5 46.148c0 6.302 8.03 17.89 21.16 17.89 12.824 0 22.785-9.877 22.785-18.364 0-3.066-.847-6.98-2.727-9.758-.136 1.745-.56 4.117-1.864 5.353a2.993 2.993 0 0 1-2.456.83l-.949-.084.288-.898c.034-.085 2.49-8.115.712-12.876-.712 1.745-1.932 3.998-3.422 4.117l-.848.068.017-.847c.068-3.507-2.083-5.37-4.574-7.522-3.557-3.083-7.572-6.573-6.099-15.433-2.473 1.457-7.284 5.471-6.081 13.756.61 4.15-.83 7.234-.881 7.37l-.17.355-.372.068c-.712.135-1.457-.153-2.135-.796-.915-.898-1.745-2.592-1.779-4.896-1.389 1.422-3.303 3.879-3.303 6.674 0 4.591 2.236 9.538 2.253 9.589l.627 1.39-1.491-.323c-3.897-.847-5.354-4.472-5.726-7.437Z" fill="url(#d)" opacity=".5"/>
  <path d="M41.351 12.248c-.338 2.559.678 6.235 2.304 7.472 1.491 1.135 3.168 3.083 3.304 4.794 2.541-4.98-1.034-6.827-3.083-7.556-.864-.305-2.457-2.084-2.525-4.71Z" fill="url(#e)"/>
  <path d="M33.541 11.52c-5.624 8.81 1.678 18.11-2.083 23.684-3.761 5.573-7.573.423-7.827-3.067 0 0 .034 11.283 5.607 15.739 5.574 4.455-10.723 3.49-12.96-1.948 0 0 0 18.11 18.382 18.11 18.38 0 21.447-16.857 21.447-16.857s-6.692 5.71-11.147 1.254c0 0 3.337-5.845 4.184-11.842 0 0-2.304 1.457-5.844.898 0 0 1.965-8.42-2.05-11.181-5.15-3.541-9.504-11.978-7.709-14.79Z" fill="url(#f)"/>
  <path d="M34.947 21.888C32 25.768 37.743 35.73 31.712 39.676c-3.338 2.186-5.252-.44-5.252-.44s.898 4.032 4.49 7.623c3.59 3.592-5.405 8.454-12.707 2.169 0 0 2.508 15.095 19.5 12.553 18.754-2.795 17.364-16.738 17.364-16.738s-5.082 7.997-12.316 4.168c0 0 4.557-6.353 4.557-9.995 0 0-3.083 1.83-6.607.068 0 0 1.678-8.471-.322-9.742-4.794-3.066-5.472-7.454-5.472-7.454Z" fill="url(#g)"/>
  <path d="M46.959 31.578c.186-9.368-14.044-8.08-10.385-24.378 0 0-9.555 3.761-7.878 15.298.576 3.964-.813 6.929-.813 6.929-1.406.288-3.591-2.507-2.83-6.827 0 0-5.014 3.744-5.014 8.555s2.321 9.91 2.321 9.91c-5.777-1.253-5.2-9.046-5.2-9.046s-3.66 4.896-3.66 14.129c0 7.183 8.098 18.652 21.16 18.652 13.061 0 23.548-10.13 23.548-19.143 0-3.948-1.339-9.047-4.236-11.825 0 0 .39 7.877-3.506 7.505 0 0 3.218-10.284-.153-14.993 0 0-1.626 5.082-3.354 5.234Z" fill="url(#h)" opacity=".5"/>
  <path d="M46.959 31.578c.186-9.368-14.044-8.08-10.385-24.378 0 0-9.555 3.761-7.878 15.298.576 3.964-.813 6.929-.813 6.929-1.406.288-3.591-2.507-2.83-6.827 0 0-5.014 3.744-5.014 8.555s2.321 9.91 2.321 9.91c-5.777-1.253-5.2-9.046-5.2-9.046s-3.66 4.896-3.66 14.129c0 7.183 8.098 18.652 21.16 18.652 13.061 0 23.548-10.13 23.548-19.143 0-3.948-1.339-9.047-4.236-11.825 0 0 .39 7.877-3.506 7.505 0 0 3.218-10.284-.153-14.993 0 0-1.626 5.082-3.354 5.234Z" fill="url(#i)" opacity=".5"/>
  <path d="M14.652 42.218c.39 9.571 8.267 21.04 20.583 21.04 12.317 0 18.466-12.993 18.856-20.6 0 0-2.304 4.473-7.505 5.37-5.201.898.356-8.944-3.287-14.772 0 0-3.218 10.148-7.793 10.52-4.574.373-8.453-6.708-8.453-10.52 0 0-2.812 6.861-2.118 12.316 1.067 8.284-10.283-3.354-10.283-3.354Z" fill="url(#j)"/>
  <path d="M46.959 31.578c.186-9.368-14.044-8.08-10.385-24.378 0 0-9.555 3.761-7.878 15.298.576 3.964-.813 6.929-.813 6.929-1.406.288-3.591-2.507-2.83-6.827 0 0-5.014 3.744-5.014 8.555s2.321 9.91 2.321 9.91c-5.777-1.253-5.2-9.046-5.2-9.046s-3.66 4.896-3.66 14.129c0 7.183 8.098 18.652 21.16 18.652 13.061 0 23.548-10.13 23.548-19.143 0-3.948-1.339-9.047-4.236-11.825 0 0 .39 7.877-3.506 7.505 0 0 3.218-10.284-.153-14.993 0 0-1.626 5.082-3.354 5.234Z" fill="url(#k)" opacity=".5"/>
  <path d="M46.976 24.514c3.795-6.997-5.608-7.962-5.625-12.265 0 0-1.66 4.438 2.304 7.47 3.236 2.457 3.32 4.795 3.32 4.795Z" fill="url(#l)" opacity=".5"/>
  <path d="M27.02 11.13c-1.424 1.423-.51 5.913-3.965 9.623 0 0-1.525-6.455 3.964-9.623Z" fill="url(#m)"/>
  <path d="M27.02 11.13c-1.44 1.423.541 7.302-3.965 9.623 0 0-1.525-6.455 3.964-9.623Z" fill="url(#n)" opacity=".5"/>
  <path d="M46.959 31.578c.186-9.368-14.044-8.08-10.385-24.378 0 0-9.555 3.761-7.878 15.298.576 3.964-.813 6.929-.813 6.929-1.406.288-3.591-2.507-2.83-6.827 0 0-5.014 3.744-5.014 8.555s2.321 9.91 2.321 9.91c-5.777-1.253-5.2-9.046-5.2-9.046s-3.66 4.896-3.66 14.129c0 7.183 8.098 18.652 21.16 18.652 13.061 0 23.548-10.13 23.548-19.143 0-3.948-1.339-9.047-4.236-11.825 0 0 .39 7.877-3.506 7.505 0 0 3.218-10.284-.153-14.993 0 0-1.626 5.082-3.354 5.234Z" fill="url(#o)" opacity=".5"/>
  <path d="M46.959 31.578c.186-9.368-14.044-8.08-10.385-24.378 0 0-9.555 3.761-7.878 15.298.576 3.964-.813 6.929-.813 6.929-1.406.288-3.591-2.507-2.83-6.827 0 0-5.014 3.744-5.014 8.555s2.321 9.91 2.321 9.91c-5.777-1.253-5.2-9.046-5.2-9.046s-3.66 4.896-3.66 14.129c0 7.183 8.098 18.652 21.16 18.652 13.061 0 23.548-10.13 23.548-19.143 0-3.948-1.339-9.047-4.236-11.825 0 0 .39 7.877-3.506 7.505 0 0 3.218-10.284-.153-14.993 0 0-1.626 5.082-3.354 5.234Z" fill="url(#p)" opacity=".25"/>
  <path d="M46.959 31.578c.186-9.368-14.044-8.08-10.385-24.378 0 0-9.555 3.761-7.878 15.298.576 3.964-.813 6.929-.813 6.929-1.406.288-3.591-2.507-2.83-6.827 0 0-5.014 3.744-5.014 8.555s2.321 9.91 2.321 9.91c-5.777-1.253-5.2-9.046-5.2-9.046s-3.66 4.896-3.66 14.129c0 7.183 8.098 18.652 21.16 18.652 13.061 0 23.548-10.13 23.548-19.143 0-3.948-1.339-9.047-4.236-11.825 0 0 .39 7.877-3.506 7.505 0 0 3.218-10.284-.153-14.993 0 0-1.626 5.082-3.354 5.234Z" fill="url(#q)" opacity=".25"/>
  <path d="M46.959 31.578c.186-9.368-14.044-8.08-10.385-24.378 0 0-9.555 3.761-7.878 15.298.576 3.964-.813 6.929-.813 6.929-1.406.288-3.591-2.507-2.83-6.827 0 0-5.014 3.744-5.014 8.555s2.321 9.91 2.321 9.91c-5.777-1.253-5.2-9.046-5.2-9.046s-3.66 4.896-3.66 14.129c0 7.183 8.098 18.652 21.16 18.652 13.061 0 23.548-10.13 23.548-19.143 0-3.948-1.339-9.047-4.236-11.825 0 0 .39 7.877-3.506 7.505 0 0 3.218-10.284-.153-14.993 0 0-1.626 5.082-3.354 5.234Z" fill="url(#r)" opacity=".25"/>
  <defs>
    <radialGradient cx="0" cy="0" gradientTransform="translate(48.158 .826) scale(30.2417)" gradientUnits="userSpaceOnUse" id="e" r="1">
      <stop offset=".001" stop-color="#FFED1C" stop-opacity=".6"/>
      <stop offset=".948" stop-color="#FFED1C" stop-opacity=".026"/>
      <stop offset=".991" stop-color="#FFED1C" stop-opacity="0"/>
    </radialGradient>
    <radialGradient cx="0" cy="0" gradientTransform="matrix(23.3937 0 0 18.991 35.558 51.34)" gradientUnits="userSpaceOnUse" id="h" r="1">
      <stop offset=".001" stop-color="#FFBC47"/>
      <stop offset=".294" stop-color="#FFBF4B" stop-opacity=".707"/>
      <stop offset=".562" stop-color="#FEC656" stop-opacity=".438"/>
      <stop offset=".82" stop-color="#FCD368" stop-opacity=".18"/>
      <stop offset="1" stop-color="#FBE07A" stop-opacity="0"/>
    </radialGradient>
    <radialGradient cx="0" cy="0" gradientTransform="matrix(22.6728 0 0 18.4058 35.558 50.378)" gradientUnits="userSpaceOnUse" id="i" r="1">
      <stop offset=".001" stop-color="#fff"/>
      <stop offset="1" stop-color="#fff" stop-opacity="0"/>
    </radialGradient>
    <radialGradient cx="0" cy="0" gradientTransform="matrix(27.8519 0 0 32.428 25.616 54.56)" gradientUnits="userSpaceOnUse" id="j" r="1">
      <stop offset=".001" stop-color="#FFED1C" stop-opacity=".6"/>
      <stop offset=".948" stop-color="#FFED1C" stop-opacity=".026"/>
      <stop offset=".991" stop-color="#FFED1C" stop-opacity="0"/>
    </radialGradient>
    <radialGradient cx="0" cy="0" gradientTransform="rotate(92.888 -6.17 42.093) scale(8.80255 7.14552)" gradientUnits="userSpaceOnUse" id="k" r="1">
      <stop offset=".001" stop-color="#fff"/>
      <stop offset="1" stop-color="#fff" stop-opacity="0"/>
    </radialGradient>
    <radialGradient cx="0" cy="0" gradientTransform="translate(40.425 12.232) scale(9.99161)" gradientUnits="userSpaceOnUse" id="l" r="1">
      <stop offset=".001" stop-color="#FFED1C"/>
      <stop offset=".2" stop-color="#FFEE2B" stop-opacity=".801"/>
      <stop offset=".584" stop-color="#FFF254" stop-opacity=".417"/>
      <stop offset="1" stop-color="#FFF686" stop-opacity="0"/>
    </radialGradient>
    <radialGradient cx="0" cy="0" gradientTransform="rotate(-56.412 27.86 -13.807) scale(8.09341 1.83804)" gradientUnits="userSpaceOnUse" id="m" r="1">
      <stop offset=".001" stop-color="#FFED1C" stop-opacity=".6"/>
      <stop offset=".948" stop-color="#FFED1C" stop-opacity=".026"/>
      <stop offset=".991" stop-color="#FFED1C" stop-opacity="0"/>
    </radialGradient>
    <radialGradient cx="0" cy="0" gradientTransform="matrix(-.64107 7.24403 -2.91478 -.25795 25.552 10.694)" gradientUnits="userSpaceOnUse" id="n" r="1">
      <stop offset=".001" stop-color="#FFED1C"/>
      <stop offset=".2" stop-color="#FFEE2B" stop-opacity=".801"/>
      <stop offset=".584" stop-color="#FFF254" stop-opacity=".417"/>
      <stop offset="1" stop-color="#FFF686" stop-opacity="0"/>
    </radialGradient>
    <radialGradient cx="0" cy="0" gradientTransform="translate(38.205 10.95) scale(31.1768)" gradientUnits="userSpaceOnUse" id="o" r="1">
      <stop offset=".001" stop-color="#FF4C00"/>
      <stop offset=".135" stop-color="#FF5B0C" stop-opacity=".866"/>
      <stop offset=".394" stop-color="#FF842C" stop-opacity=".607"/>
      <stop offset=".749" stop-color="#FFC45F" stop-opacity=".251"/>
      <stop offset="1" stop-color="#FFF686" stop-opacity="0"/>
    </radialGradient>
    <radialGradient cx="0" cy="0" gradientTransform="translate(52.385 36.209) scale(16.5481)" gradientUnits="userSpaceOnUse" id="p" r="1">
      <stop offset=".001" stop-color="#FFED1C"/>
      <stop offset=".2" stop-color="#FFEE2B" stop-opacity=".801"/>
      <stop offset=".584" stop-color="#FFF254" stop-opacity=".417"/>
      <stop offset="1" stop-color="#FFF686" stop-opacity="0"/>
    </radialGradient>
    <radialGradient cx="0" cy="0" gradientTransform="translate(18.51 42.106) scale(17.6382)" gradientUnits="userSpaceOnUse" id="q" r="1">
      <stop offset=".001" stop-color="#FFED1C"/>
      <stop offset=".2" stop-color="#FFEE2B" stop-opacity=".801"/>
      <stop offset=".584" stop-color="#FFF254" stop-opacity=".417"/>
      <stop offset="1" stop-color="#FFF686" stop-opacity="0"/>
    </radialGradient>
    <radialGradient cx="0" cy="0" gradientTransform="matrix(2.04957 30.1433 -18.3241 1.24593 35.294 38.541)" gradientUnits="userSpaceOnUse" id="r" r="1">
      <stop stop-color="#FF4C00" stop-opacity="0"/>
      <stop offset=".987" stop-color="#FF4C00" stop-opacity=".989"/>
      <stop offset=".999" stop-color="#FF4C00"/>
    </radialGradient>
    <linearGradient gradientUnits="userSpaceOnUse" id="a" x1="38.719" x2="28.334" y1="66.392" y2="-8.869">
      <stop stop-color="red"/>
      <stop offset=".232" stop-color="#FF1500"/>
      <stop offset=".737" stop-color="#FF3D00"/>
      <stop offset=".999" stop-color="#FF4C00"/>
    </linearGradient>
    <linearGradient gradientUnits="userSpaceOnUse" id="b" x1="50.888" x2="40.503" y1="64.713" y2="-10.549">
      <stop stop-color="red"/>
      <stop offset=".232" stop-color="#FF1500"/>
      <stop offset=".737" stop-color="#FF3D00"/>
      <stop offset=".999" stop-color="#FF4C00"/>
    </linearGradient>
    <linearGradient gradientUnits="userSpaceOnUse" id="c" x1="32.111" x2="21.726" y1="67.304" y2="-7.958">
      <stop stop-color="red"/>
      <stop offset=".232" stop-color="#FF1500"/>
      <stop offset=".737" stop-color="#FF3D00"/>
      <stop offset=".999" stop-color="#FF4C00"/>
    </linearGradient>
    <linearGradient gradientUnits="userSpaceOnUse" id="d" x1="38.439" x2="15.745" y1="53.572" y2="-11.239">
      <stop stop-color="#FF8000"/>
      <stop offset=".639" stop-color="#FF5B00"/>
      <stop offset=".999" stop-color="#FF4C00"/>
    </linearGradient>
    <linearGradient gradientUnits="userSpaceOnUse" id="f" x1="29.627" x2="37.832" y1="10.322" y2="56.351">
      <stop stop-color="#FF8000"/>
      <stop offset=".023" stop-color="#FE7F02" stop-opacity=".977"/>
      <stop offset=".666" stop-color="#ED582A" stop-opacity=".334"/>
      <stop offset="1" stop-color="#E74939" stop-opacity="0"/>
    </linearGradient>
    <linearGradient gradientUnits="userSpaceOnUse" id="g" x1="35.999" x2="37.772" y1="60.062" y2="27.742">
      <stop stop-color="#FFBC47"/>
      <stop offset=".187" stop-color="#FFB137" stop-opacity=".813"/>
      <stop offset=".722" stop-color="#FF940F" stop-opacity=".278"/>
      <stop offset="1" stop-color="#FF8900" stop-opacity="0"/>
    </linearGradient>
  </defs>
</svg>
