<svg fill="none" xmlns="http://www.w3.org/2000/svg" viewBox="0 0 802 802">
  <rect width="802" height="802" rx="401" fill="#E56B6F"/>
  <path fill-rule="evenodd" clip-rule="evenodd" d="M414.239 703a4 4 0 0 0 4-4V442.179C540.904 433.334 638 330.885 638 206.21c0-9.505-7.718-17.21-17.239-17.21-99.33 0-184.571 61.329-219.759 148.046C365.812 250.329 280.572 189 181.239 189c-9.521 0-17.239 7.705-17.239 17.21 0 124.675 97.096 227.124 219.761 235.969V699a4 4 0 0 0 4 4h26.478Zm188.486-478.786c-8.631 97.141-86.385 174.766-183.691 183.381 8.631-97.142 86.385-174.765 183.691-183.381Zm-403.45 0c97.306 8.616 175.062 86.239 183.691 183.381-97.306-8.615-175.062-86.238-183.691-183.381Z" fill="#fff" stroke="#fff" stroke-width="10"/>
</svg>
