<svg
  fill="none"
  viewBox="0 0 72 72"
  xmlns="http://www.w3.org/2000/svg"
>
  <path
    d="M53.486 41.583c.191 3.648 6.361 8.037 8.736 9.692 2.982 2.083-9.594 15.338-11.347 13.451-1.245-1.338-9.022-7.02-9.53-7.443"
    fill="url(#a)"
  />
  <path
    d="M50.875 64.726c.561.602 2.22-.342 4.128-1.969-2.603-.044-8.163-4.905-8.867-6.227-.585-1.102-2.912-1.765-4.958-1.85l.167 2.607c.508.419 8.285 6.1 9.53 7.439Z"
    fill="url(#b)"
  />
  <path
    d="M50.875 64.726c-1.245-1.338-9.022-7.02-9.53-7.443 5.873.24 10.726-7.753 11.84-12.556.154-.675.334-1.188.529-1.586.606 2.387 6.52 6.74 8.513 8.13 2.977 2.087-9.595 15.342-11.352 13.455Z"
    fill="url(#c)"
  />
  <path
    d="M35.74 19.786c-2.31-.846-5.1 2.591-.903 7.228.529.537 1.131 1.07 1.83 1.582 1.7 1.253 4.853 4.185 4.853 4.185-.228.436-7.134-5.739-9.046-7.691l-4.242 4.055c.883.63 2.627 2.03 2.4 2.351-.228.321-.61-.578-1.363-1.11-.752-.537-1.135 6.564-1.224 6.934-.07.281-1.257.39-1.863 2.498-.203.703.317 4.144.216 4.279 0 0-2.473-2.88-3.885-3.91-1.411-1.024-1.037 7.298.529 8.371 2.554 1.758 10.62 10.547 17.559 9.376 8.029-1.359 14.048-10.99 13.011-17.136-1.037-6.146-6.45-10.648-10.587-13.841-3.502-2.7-5.422-5.975-7.285-7.17Z"
    fill="url(#d)"
  />
  <path
    d="M22.517 40.188c-1.411-1.025-4.876-4.161-7.032-5.573-2.156-1.411-3.905-1.224-4.938.66-1.033 1.882 2.766 4.648 3.644 5.372 1.343 1.11 7.273 6.703 8.855 7.915"
    fill="url(#e)"
  />
  <path
    d="M28.045 37.32c-.244.359-1.24-1.15-3.62-2.997-1.818-1.411-6.679-5.38-9.318-7.378-3.275-2.477-4.625-2.57-6.02-1.163-1.395 1.407-.09 3.632 2.021 5.316 1.782 1.423 4.694 3.55 8.383 6.154 2.209 1.557 7.301 6.292 6.906 6.84"
    fill="url(#f)"
  />
  <path
    d="M32.474 25.09c-1.911-1.952-9.599-7.834-11.47-9.587-1.87-1.753-3.786-1.342-4.913-.122-1.127 1.22-.992 2.9 2.847 6.22 2.424 2.094 4.71 4.111 9.294 7.54l5.316-.626-1.074-3.425Z"
    fill="url(#g)"
  />
  <path
    d="M29.269 30.382c-.752-.533-7.594-6.325-9.127-7.557-3.21-2.575-7.508-7.012-10.136-4.393-1.692 1.688-.317 3.482.362 4.181.68.7 9.278 7.529 10.087 8.102.81.574 7.68 6.227 7.59 6.601"
    fill="url(#h)"
  />
  <path
    d="M15.599 17.553c.342 1.054 1.42 2.392 3.34 4.051 2.423 2.095 4.734 4.08 9.293 7.541.866.655 2.628 2.03 2.4 2.35.256-2.562-7.187-6.934-10.221-9.374-3.222-2.595-5.072-5.357-4.812-4.568Z"
    fill="url(#i)"
  />
  <path
    d="M20.455 30.72c.81.577 7.68 6.226 7.59 6.6 0 0-.31-2.07-2.66-3.741-4.82-3.425-9.77-7.31-12.12-9.713-2.218-2.266-4.015-3.014-3.804-2.534.212.48.647 1.017.907 1.285.68.7 9.278 7.525 10.087 8.102Z"
    fill="url(#j)"
  />
  <path
    d="M11.108 31.102c1.782 1.423 4.694 3.55 8.383 6.153 2.209 1.558 7.3 6.293 6.906 6.842 2.274-2.677-16.476-13.5-17.875-17.128-.127 1.302 1.004 2.868 2.586 4.133Z"
    fill="url(#k)"
  />
  <path
    d="M25.93 44.638c.236-.143.447-.403.472-.537 0 0-2.587-2.965-3.885-3.909-1.411-1.029-4.876-4.165-7.032-5.576-.948-.618-1.814-.932-2.579-.923 1.147.573.671.866 3.258 2.489 1.387.866 8.236 9.375 9.766 8.456Z"
    fill="url(#l)"
  />
  <path
    d="M20.447 32.008c2.274 1.603 6.235 6.54 7.598 5.312-.395.216-1.77-1.561-3.62-2.997-1.818-1.412-6.642-5.426-9.318-7.378-2.758-2.014-3.815-2.384-5.145-1.835 4.25.647 4.909 2.957 10.485 6.898Z"
    fill="url(#m)"
  />
  <path
    d="M20.744 24.585c3.286 2.55 9.062 7.623 9.888 6.91-.326.163-.688-.63-1.363-1.11-.752-.537-7.594-6.328-9.127-7.56-1.993-1.6-4.905-4.422-7.358-5.069 2.603 1.424 5.296 4.76 7.96 6.83Z"
    fill="url(#n)"
  />
  <path
    d="M26.398 44.097s-2.587-2.965-3.885-3.909c-1.407-1.025-4.872-4.16-7.028-5.572-.948-.618-1.814-.932-2.579-.923 1.147.573 3.299 1.76 7.146 5.03 6.687 5.837 6.325 5.508 6.346 5.374Z"
    fill="url(#o)"
  />
  <path
    d="M35.74 19.786c-.394-.142-.81-.106-1.212.053 1.595.626 3.274 1.916 4.051 4.852.984 3.714 8.533 6.321 10.657 10.12 2.265 4.05 1.338 10.327-1.469 12.739-2.802 2.412-5.552 11.388-19.015 4.043-.004 0-.008-.005-.008-.005-.837-.553-3.339-2.44-4.038-2.948-3.665-2.664-8.444-7.915-10.852-10.08-.472-.422-1.798-2.102-3.112-1.382.834 1.489 2.843 2.973 3.45 3.474 1.342 1.11 8.3 7.532 8.553 7.707 1.904 1.318 10.97 10.734 17.856 9.579 8.033-1.347 14.048-10.99 13.011-17.136-1.037-6.146-6.45-10.648-10.587-13.841-3.502-2.705-5.422-5.979-7.285-7.175Z"
    fill="url(#p)"
  />
  <path
    d="M62.222 51.276c-2.151-1.501-7.41-5.251-8.517-8.656.025-.63.009-1.244-.09-1.822-1.036-6.146-6.45-10.648-10.586-13.841-3.502-2.7-5.426-5.975-7.285-7.17-2.31-.847-5.1 2.59-.903 7.227.529.537 1.13 1.07 1.83 1.582 1.7 1.253 4.853 4.185 4.853 4.185-.228.436-7.134-5.739-9.046-7.69-1.912-1.953-9.599-7.835-11.47-9.588-1.87-1.757-3.786-1.342-4.913-.122-1.127 1.22-.992 2.9 2.847 6.22 2.424 2.094 4.71 4.111 9.294 7.54.883.63 2.627 2.03 2.4 2.351-.228.317-.61-.578-1.363-1.11-.756-.533-7.598-6.325-9.131-7.557-3.21-2.575-7.508-7.012-10.136-4.393-1.692 1.688-.317 3.482.362 4.181.68.7 9.278 7.529 10.087 8.102.81.578 7.68 6.227 7.59 6.601-.244.358-1.24-1.15-3.62-2.997-1.818-1.412-6.679-5.381-9.318-7.378-3.275-2.477-4.625-2.57-6.02-1.163-1.395 1.407-.09 3.632 2.021 5.315 1.786 1.424 4.694 3.551 8.383 6.154 2.07 1.46 6.67 5.71 6.919 6.691v.008c.016.061.012.114-.013.147 0 0-2.473-2.88-3.884-3.91-1.407-1.02-4.873-4.156-7.028-5.567-2.156-1.412-3.905-1.224-4.938.659s2.766 4.649 3.644 5.373c1.343 1.11 7.273 6.702 8.855 7.915 2.554 1.757 10.62 10.546 17.559 9.37.41-.069.817-.174 1.216-.284 1.802 1.358 7.955 5.898 9.054 7.077 1.757 1.887 14.329-11.368 11.347-13.45Z"
    fill="url(#q)"
  />
  <path
    d="M28.204 45.703c-.017.017-.92-.842-1.115-1.037-.102-.101-8.02-8.862-9.359-9.867 0 0 .13.106.18.016.036-.069-.082-.203-.082-.203 1.236.927 6.264 5.1 9.51 9.468.32.432.951 1.538.866 1.623ZM30.493 39.07s-.004 0 0 0c-.553.292-11.006-10.998-13.523-12.963 0 0 .248.114.337-.004.077-.114-.07-.358-.07-.358 2.551 1.989 13.464 12.95 13.256 13.325ZM33.633 33.481c-.162.098-.675-.456-.772-.565-1.81-2.038-3.876-3.921-6.244-6.276-1.932-1.92-3.79-3.844-4.99-5.17 0 0 .142.15.211.106.11-.098-.085-.293-.085-.293 1.188 1.318 3.31 3.067 5.234 4.983 2.376 2.359 4.34 4.262 6.162 6.308.094.106.582.805.484.907Z"
    fill="#975500"
  />
  <path
    d="M57.508 43.43c-.154 3.672 5.613 8.65 7.834 10.534 2.79 2.367-11.059 14.455-12.637 12.401-1.123-1.46-8.375-7.886-8.843-8.354"
    fill="url(#r)"
  />
  <path
    d="M52.71 66.365c.503.655 2.256-.13 4.319-1.582-2.604-.293-7.716-5.682-8.294-7.077-.484-1.159-2.75-2.042-4.791-2.322l-.077 2.627c.467.472 7.72 6.898 8.842 8.354Z"
    fill="url(#s)"
  />
  <path
    d="M52.709 66.365c-1.123-1.46-8.375-7.887-8.842-8.354 5.857.793 11.478-6.752 13.044-11.458.22-.659.443-1.16.679-1.537.382 2.448 5.893 7.366 7.756 8.948 2.79 2.367-11.059 14.459-12.637 12.401Z"
    fill="url(#t)"
  />
  <path
    d="M41.788 19.92c-2.233-1.065-5.352 2.115-1.586 7.155.48.59 1.033 1.18 1.684 1.757 1.586 1.415 4.462 4.653 4.462 4.653-.269.415-6.606-6.422-8.338-8.558l-4.629 3.66c.826.717 2.44 2.283 2.184 2.58-.256.296-.557-.635-1.26-1.241-.704-.606-1.758 6.467-1.88 6.833-.093.273-1.293.273-2.102 2.327-.269.683-.074 4.18-.188 4.307 0 0-2.204-3.12-3.518-4.279-1.318-1.163-1.729 7.211-.26 8.436 2.391 2 9.643 11.567 16.704 11.047 8.172-.602 15.11-9.685 14.65-15.936-.459-6.256-5.453-11.275-9.301-14.862-3.254-3.043-4.869-6.504-6.622-7.879Z"
    fill="url(#u)"
  />
  <path
    d="M26.617 39.114c-1.318-1.163-4.49-4.633-6.516-6.247-2.025-1.615-3.794-1.595-5.007.195-1.212 1.786 2.331 4.917 3.144 5.723 1.241 1.236 6.655 7.398 8.123 8.76"
    fill="url(#v)"
  />
  <path
    d="M32.43 36.76c-.277.337-1.135-1.27-3.344-3.344-1.688-1.586-6.182-6.02-8.635-8.27-3.046-2.79-4.388-3.009-5.918-1.732-1.529 1.277-.435 3.628 1.521 5.515 1.652 1.595 4.369 4.003 7.814 6.956 2.066 1.769 6.719 6.991 6.272 7.504"
    fill="url(#w)"
  />
  <path
    d="M38.014 24.927c-1.729-2.135-8.875-8.749-10.584-10.685-1.708-1.936-3.668-1.7-4.909-.585-1.24 1.114-1.269 2.81 2.266 6.5 2.233 2.33 4.332 4.563 8.598 8.43l5.381-.125-.752-3.535Z"
    fill="url(#x)"
  />
  <path
    d="M34.309 29.926c-.704-.606-7.008-7.053-8.432-8.432-2.97-2.88-6.858-7.732-9.737-5.357-1.855 1.53-.647 3.458-.033 4.226.614.77 8.582 8.416 9.339 9.07.76.655 7.105 6.964 6.983 7.326"
    fill="url(#y)"
  />
  <path
    d="M21.826 15.788c.244 1.09 1.2 2.53 2.965 4.372 2.229 2.327 4.36 4.536 8.598 8.432.806.74 2.44 2.282 2.184 2.579.5-2.542-6.544-7.627-9.35-10.356-2.99-2.904-4.58-5.844-4.397-5.027Z"
    fill="url(#z)"
  />
  <path
    d="M25.45 29.434c.756.655 7.101 6.963 6.98 7.325 0 0-.114-2.103-2.31-4.002-4.503-3.889-9.1-8.245-11.227-10.872-2.005-2.477-3.733-3.396-3.567-2.896.167.5.553 1.082.79 1.375.605.764 8.573 8.415 9.334 9.07Z"
    fill="url(#A)"
  />
  <path
    d="M16.05 28.93c1.652 1.594 4.369 4.002 7.814 6.955 2.066 1.769 6.719 6.991 6.271 7.504 2.53-2.47-15.228-15.078-16.29-18.844-.243 1.293.737 2.97 2.205 4.384Z"
    fill="url(#B)"
  />
  <path
    d="M29.615 43.89c.248-.119.488-.363.52-.497 0 0-2.31-3.213-3.518-4.283-1.318-1.16-4.49-4.629-6.516-6.243-.89-.712-1.728-1.102-2.497-1.172 1.098.684.59.932 3.03 2.803 1.306 1 7.366 10.168 8.98 9.391Z"
    fill="url(#C)"
  />
  <path
    d="M25.32 30.72c2.123 1.822 5.625 7.138 7.11 6.04-.415.178-1.623-1.733-3.344-3.344-1.688-1.586-6.141-6.064-8.635-8.269-2.574-2.273-3.6-2.75-4.982-2.322 4.193 1.05 4.632 3.425 9.85 7.895Z"
    fill="url(#D)"
  />
  <path
    d="M26.316 23.313c3.055 2.867 8.359 8.488 9.253 7.854-.341.134-.63-.7-1.26-1.24-.704-.607-7.009-7.054-8.432-8.433-1.843-1.79-4.499-4.888-6.89-5.767 2.473 1.668 4.856 5.263 7.33 7.586Z"
    fill="url(#E)"
  />
  <path
    d="M30.14 43.393s-2.31-3.213-3.519-4.283c-1.322-1.16-4.494-4.629-6.52-6.243-.89-.712-1.728-1.102-2.497-1.172 1.098.684 3.14 2.075 6.683 5.715 6.15 6.48 5.816 6.117 5.853 5.983Z"
    fill="url(#F)"
  />
  <path
    d="M41.788 19.92c-.378-.183-.8-.183-1.22-.06 1.538.776 3.1 2.228 3.604 5.242.638 3.815 7.951 7.138 9.72 11.14 1.888 4.275.367 10.47-2.672 12.622-3.038 2.151-6.637 10.884-19.425 2.257-.004 0-.004-.004-.008-.004-.79-.63-3.116-2.762-3.77-3.335-3.421-3.014-7.712-8.725-9.92-11.12-.436-.468-1.603-2.278-2.986-1.68.695 1.57 2.566 3.245 3.128 3.803 1.24 1.236 7.605 8.326 7.841 8.525 1.782 1.5 9.974 11.787 16.982 11.282 8.17-.59 15.11-9.684 14.65-15.935-.46-6.256-5.454-11.275-9.302-14.862-3.254-3.039-4.869-6.5-6.622-7.875Z"
    fill="url(#G)"
  />
  <path
    d="M30.327 43.58c-.017.017-.92-.842-1.115-1.037-.102-.102-8.02-8.862-9.359-9.867 0 0 .13.106.18.016.036-.069-.082-.203-.082-.203 1.236.927 6.264 5.1 9.51 9.469.32.43.947 1.537.866 1.622ZM32.617 36.947c-.005 0-.005.004 0 0-.553.292-11.007-10.998-13.524-12.963 0 0 .248.114.337-.004.078-.114-.069-.358-.069-.358 2.55 1.989 13.463 12.95 13.256 13.325ZM35.757 31.358c-.163.098-.676-.456-.773-.565-1.814-2.038-3.877-3.917-6.248-6.276-1.932-1.92-3.79-3.844-4.986-5.17 0 0 .142.15.211.106.11-.098-.085-.293-.085-.293 1.188 1.318 3.31 3.067 5.234 4.983 2.376 2.363 4.34 4.262 6.163 6.308.093.106.581.805.483.907ZM53.03 66.56c.081-.134-5.206-5.487-7.532-7.594l-.924-.838a.41.41 0 0 0-.337-.097c-.399.073-.802.138-1.204.166-5.455.403-11.051-5.446-14.395-8.944-.854-.89-1.525-1.594-2.009-1.996-.842-.782-3.026-3.193-4.954-5.325-1.411-1.557-2.627-2.904-3.152-3.428l-.273-.265c-4.05-3.465-3.07-5.295-3.152-5.177-1.216 1.785 2.327 4.917 3.14 5.722 1.24 1.237 6.654 7.399 8.119 8.761C28.748 49.546 36 59.113 43.06 58.592c.42-.032.834-.097 1.245-.17 1.68 1.529 7.415 6.657 8.403 7.943a.583.583 0 0 0 .321.195ZM12.902 5.709a.357.357 0 0 0-.22-.232.35.35 0 0 0-.317.032l-1.375.859a.363.363 0 0 0-.085.545c2.822 3.522 4.344 5.047 4.34 5.023-.558-1.928-2.33-6.187-2.343-6.227ZM7.989 11.858a.347.347 0 0 0-.269-.105.367.367 0 0 0-.26.122l-1.07 1.22a.36.36 0 0 0-.069.358c.045.122.155.191.277.236 3.57 1.366 4.612 2.058 4.636 2.037.122-.113-.663-1.248-3.245-3.868ZM18.91 5.84a.363.363 0 0 1 .35-.4l1.622-.04a.37.37 0 0 1 .321.175c.07.114.045.24.004.366-1.232 3.62-1.277 4.877-1.31 4.88-.166.03-.622-1.317-.988-4.982ZM47.246 11.842a.37.37 0 0 0 .082-.31.374.374 0 0 0-.196-.251l-1.46-.712a.37.37 0 0 0-.3-.008.381.381 0 0 0-.204.223c-1.497 4.259-1.985 6.358-1.969 6.341 1.343-1.492 4.019-5.25 4.047-5.283ZM39.502 11.037a.356.356 0 0 0-.053-.284.359.359 0 0 0-.243-.16l-1.599-.26a.364.364 0 0 0-.342.13c-.081.103-.077.233-.053.363.728 3.754.692 5.003.724 5.01.163.05.708-1.215 1.566-4.799ZM50.39 17.122a.367.367 0 0 1 .525.09l.891 1.354c.073.11.081.248.02.366-.06.118-.179.167-.309.196-3.721.87-4.816 1.496-4.836 1.472-.11-.13.793-1.232 3.71-3.478Z"
    fill="#975500"
  />
  <defs>
    <linearGradient
      gradientUnits="userSpaceOnUse"
      id="a"
      x1="47.913"
      x2="52.573"
      y1="49.867"
      y2="54.051"
    >
      <stop offset=".001" stop-color="#FFCB4B" />
      <stop offset="1" stop-color="#FFD748" />
    </linearGradient>
    <linearGradient
      gradientUnits="userSpaceOnUse"
      id="b"
      x1="51.2"
      x2="42.502"
      y1="63.643"
      y2="53.218"
    >
      <stop offset=".001" stop-color="#FFCB4B" />
      <stop offset="1" stop-color="#FFD748" />
    </linearGradient>
    <linearGradient
      gradientUnits="userSpaceOnUse"
      id="c"
      x1="51.985"
      x2="49.803"
      y1="55.07"
      y2="75.367"
    >
      <stop stop-color="#C86F34" stop-opacity="0" />
      <stop offset="1" stop-color="#C86F34" />
    </linearGradient>
    <linearGradient
      gradientUnits="userSpaceOnUse"
      id="d"
      x1="48.541"
      x2="36.779"
      y1="60.752"
      y2="41.281"
    >
      <stop offset=".001" stop-color="#FFCB4B" />
      <stop offset="1" stop-color="#FFD748" />
    </linearGradient>
    <linearGradient
      gradientUnits="userSpaceOnUse"
      id="e"
      x1="11.662"
      x2="21.305"
      y1="37.724"
      y2="42.59"
    >
      <stop offset=".001" stop-color="#FFCB4B" />
      <stop offset="1" stop-color="#FFD748" />
    </linearGradient>
    <linearGradient
      gradientUnits="userSpaceOnUse"
      id="f"
      x1="6.74"
      x2="24.335"
      y1="25.07"
      y2="38.193"
    >
      <stop offset=".001" stop-color="#FFCB4B" />
      <stop offset="1" stop-color="#FFD748" />
    </linearGradient>
    <linearGradient
      gradientUnits="userSpaceOnUse"
      id="g"
      x1="19.896"
      x2="31"
      y1="17.049"
      y2="29.354"
    >
      <stop offset=".001" stop-color="#FFCB4B" />
      <stop offset="1" stop-color="#FFD748" />
    </linearGradient>
    <linearGradient
      gradientUnits="userSpaceOnUse"
      id="h"
      x1="13.373"
      x2="27.253"
      y1="20.297"
      y2="33.654"
    >
      <stop offset=".001" stop-color="#FFCB4B" />
      <stop offset="1" stop-color="#FFD748" />
    </linearGradient>
    <linearGradient
      gradientUnits="userSpaceOnUse"
      id="i"
      x1="24.668"
      x2="22.433"
      y1="22.43"
      y2="25.334"
    >
      <stop stop-color="#FFBC47" stop-opacity="0" />
      <stop offset="1" stop-color="#E68E43" />
    </linearGradient>
    <linearGradient
      gradientUnits="userSpaceOnUse"
      id="j"
      x1="22.2"
      x2="17.767"
      y1="24.917"
      y2="30.514"
    >
      <stop stop-color="#FFBC47" stop-opacity="0" />
      <stop offset="1" stop-color="#E68E43" />
    </linearGradient>
    <linearGradient
      gradientUnits="userSpaceOnUse"
      id="k"
      x1="20.542"
      x2="16.698"
      y1="31.356"
      y2="36.568"
    >
      <stop offset=".312" stop-color="#FFBC47" stop-opacity="0" />
      <stop offset="1" stop-color="#FF8900" />
    </linearGradient>
    <linearGradient
      gradientUnits="userSpaceOnUse"
      id="l"
      x1="18.28"
      x2="20.87"
      y1="41.032"
      y2="37.042"
    >
      <stop stop-color="#FFBC47" stop-opacity="0" />
      <stop offset="1" stop-color="#E68E43" />
    </linearGradient>
    <linearGradient
      gradientUnits="userSpaceOnUse"
      id="m"
      x1="1.774"
      x2="25.114"
      y1="15.537"
      y2="36.767"
    >
      <stop stop-color="#FFBC47" stop-opacity="0" />
      <stop offset="1" stop-color="#E68E43" />
    </linearGradient>
    <linearGradient
      gradientUnits="userSpaceOnUse"
      id="n"
      x1="20.135"
      x2="21.794"
      y1="26.314"
      y2="24.535"
    >
      <stop stop-color="#FFBC47" stop-opacity="0" />
      <stop offset="1" stop-color="#E68E43" />
    </linearGradient>
    <linearGradient
      gradientUnits="userSpaceOnUse"
      id="o"
      x1="18.397"
      x2="22.345"
      y1="39.444"
      y2="37.782"
    >
      <stop stop-color="#FFBC47" stop-opacity="0" />
      <stop offset="1" stop-color="#E68E43" />
    </linearGradient>
    <linearGradient
      gradientUnits="userSpaceOnUse"
      id="q"
      x1="8.004"
      x2="32.019"
      y1=".418"
      y2="37.312"
    >
      <stop stop-color="#FFBC47" stop-opacity="0" />
      <stop offset="1" stop-color="#C86F34" />
    </linearGradient>
    <linearGradient
      gradientUnits="userSpaceOnUse"
      id="r"
      x1="51.145"
      x2="55.418"
      y1="51.219"
      y2="55.849"
    >
      <stop offset=".001" stop-color="#FFCB4B" />
      <stop offset="1" stop-color="#FFD748" />
    </linearGradient>
    <linearGradient
      gradientUnits="userSpaceOnUse"
      id="s"
      x1="53.132"
      x2="45.404"
      y1="65.316"
      y2="54.055"
    >
      <stop offset=".001" stop-color="#FFCB4B" />
      <stop offset="1" stop-color="#FFD748" />
    </linearGradient>
    <linearGradient
      gradientUnits="userSpaceOnUse"
      id="t"
      x1="54.733"
      x2="50.632"
      y1="56.814"
      y2="76.939"
    >
      <stop stop-color="#C86F34" stop-opacity="0" />
      <stop offset="1" stop-color="#C86F34" />
    </linearGradient>
    <linearGradient
      gradientUnits="userSpaceOnUse"
      id="u"
      x1="50.741"
      x2="40.797"
      y1="62.17"
      y2="41.557"
    >
      <stop offset=".001" stop-color="#FFCB4B" />
      <stop offset="1" stop-color="#FFD748" />
    </linearGradient>
    <linearGradient
      gradientUnits="userSpaceOnUse"
      id="v"
      x1="15.979"
      x2="25.179"
      y1="35.619"
      y2="41.403"
    >
      <stop offset=".001" stop-color="#FFCB4B" />
      <stop offset="1" stop-color="#FFD748" />
    </linearGradient>
    <linearGradient
      gradientUnits="userSpaceOnUse"
      id="w"
      x1="12.243"
      x2="28.629"
      y1="22.479"
      y2="37.283"
    >
      <stop offset=".001" stop-color="#FFCB4B" />
      <stop offset="1" stop-color="#FFD748" />
    </linearGradient>
    <linearGradient
      gradientUnits="userSpaceOnUse"
      id="x"
      x1="26.177"
      x2="36.138"
      y1="15.685"
      y2="29.058"
    >
      <stop offset=".001" stop-color="#FFCB4B" />
      <stop offset="1" stop-color="#FFD748" />
    </linearGradient>
    <linearGradient
      gradientUnits="userSpaceOnUse"
      id="y"
      x1="19.337"
      x2="31.98"
      y1="18.323"
      y2="33.012"
    >
      <stop offset=".001" stop-color="#FFCB4B" />
      <stop offset="1" stop-color="#FFD748" />
    </linearGradient>
    <linearGradient
      gradientUnits="userSpaceOnUse"
      id="z"
      x1="30.449"
      x2="27.936"
      y1="21.526"
      y2="24.224"
    >
      <stop stop-color="#FFBC47" stop-opacity="0" />
      <stop offset="1" stop-color="#E68E43" />
    </linearGradient>
    <linearGradient
      gradientUnits="userSpaceOnUse"
      id="A"
      x1="28.198"
      x2="17.32"
      y1="21.427"
      y2="37.523"
    >
      <stop stop-color="#FFBC47" stop-opacity="0" />
      <stop offset="1" stop-color="#E68E43" />
    </linearGradient>
    <linearGradient
      gradientUnits="userSpaceOnUse"
      id="B"
      x1="24.085"
      x2="21.299"
      y1="30.801"
      y2="35.046"
    >
      <stop offset=".312" stop-color="#FFBC47" stop-opacity="0" />
      <stop offset="1" stop-color="#FF8900" />
    </linearGradient>
    <linearGradient
      gradientUnits="userSpaceOnUse"
      id="C"
      x1="22.508"
      x2="26.023"
      y1="39.214"
      y2="34.969"
    >
      <stop stop-color="#FFBC47" stop-opacity="0" />
      <stop offset="1" stop-color="#E68E43" />
    </linearGradient>
    <linearGradient
      gradientUnits="userSpaceOnUse"
      id="D"
      x1="22.761"
      x2="26.608"
      y1="31.326"
      y2="26.351"
    >
      <stop stop-color="#FFBC47" stop-opacity="0" />
      <stop offset="1" stop-color="#E68E43" />
    </linearGradient>
    <linearGradient
      gradientUnits="userSpaceOnUse"
      id="E"
      x1="26.029"
      x2="29.567"
      y1="24.852"
      y2="20.873"
    >
      <stop stop-color="#FFBC47" stop-opacity="0" />
      <stop offset="1" stop-color="#E68E43" />
    </linearGradient>
    <linearGradient
      gradientUnits="userSpaceOnUse"
      id="F"
      x1="22.558"
      x2="26.67"
      y1="37.984"
      y2="36.691"
    >
      <stop stop-color="#FFBC47" stop-opacity="0" />
      <stop offset="1" stop-color="#E68E43" />
    </linearGradient>
    <radialGradient
      cx="0"
      cy="0"
      gradientTransform="rotate(-50.384 62.38 -17.248) scale(44.0538)"
      gradientUnits="userSpaceOnUse"
      id="p"
      r="1"
    >
      <stop stop-color="#FFBC47" stop-opacity="0" />
      <stop offset="1" stop-color="#FF8900" />
    </radialGradient>
    <radialGradient
      cx="0"
      cy="0"
      gradientTransform="matrix(31.34406 -31.34406 31.34159 31.34159 39.868 41.978)"
      gradientUnits="userSpaceOnUse"
      id="G"
      r="1"
    >
      <stop stop-color="#FFBC47" stop-opacity="0" />
      <stop offset="1" stop-color="#FF8900" />
    </radialGradient>
  </defs>
</svg>
