<svg fill="none" viewBox="0 0 72 72" xmlns="http://www.w3.org/2000/svg">
  <path d="M13.903 49.712C9.96 53.55 15.134 57.672 7.2 63.256c0 0 4.67 1.57 8.895-3.778 1.453-1.84 3.132-2.612 3.132-2.612.575.345.135 2.217-1.906 3.765 0 0 3.184.082 5.174-1.919 1.99-2 3.342-4.88 3.342-4.88 1.362 2.41-2.048 5.461-2.048 5.461s3.22-.843 7.038-4.684c2.97-2.988 5.083-10.412.827-14.692-4.256-4.28-11.861-3.5-15.588.248-1.631 1.64-3.301 4.202-3.516 6.307 0 0 3.138-3.407 4.247-1.971 0 0-5.307 3.226-6.16 6.289 0 0 2.642-1.585 3.266-1.078Z" fill="url(#a)"/>
  <path d="M10.97 52.642c-4.13 1.668-1.47 5.15-3.243 6.944 0 0 2.377-1.307 2.338-3.865-.031-2.084.906-3.08.906-3.08Z" fill="url(#b)"/>
  <path d="M11.936 64.751c1.058-.126 2.847-3.222 5.275-2.708 0 0-2.177 3.188-5.275 2.708Z" fill="url(#c)"/>
  <path d="M24.994 58.535c1.295-.487 3.504-1.583 5.833-3.926 2.61-2.623 4.784-10.073.51-14.372-4.18-4.202-11.506-3.354-15.02.18-1.27 1.277-2.612 3.187-3.146 4.953.766-.686 1.885-1.532 2.824-1.62.481-.046.877.113 1.144.458l.268.347-.465.284c-.046.028-4.169 2.559-5.562 5.125.955-.49 2.28-1.029 2.82-.59l.306.248-.358.35c-1.472 1.433-1.543 2.916-1.624 4.633-.117 2.452-.249 5.214-4.396 8.415 1.41.189 4.639.098 7.674-3.744 1.52-1.924 3.261-2.74 3.335-2.774l.199-.091.154.093c.289.172.417.539.363 1.032-.073.674-.5 1.65-1.452 2.621 1.038-.134 2.685-.53 3.844-1.695 1.898-1.91 3.22-4.698 3.233-4.726l.37-.789.354.626c.919 1.626-.104 3.609-1.208 4.962Z" fill="url(#d)" opacity=".5"/>
  <path d="M7.727 59.586c1.165-.953 2.354-2.814 2.339-3.865-.015-.962.247-2.324.905-3.08-2.888 1.235-2.488 3.185-2.12 4.15.16.423-.057 1.68-1.124 2.795Z" fill="url(#e)"/>
  <path d="M9.97 62.449c5.48-1.823 6.946-8.081 10.476-9.167 3.53-1.086 2.641 2.309 1.283 3.84 0 0 4.658-4.704 4.687-8.383.029-3.68 4.934 2.064 3.412 5.054 0 0 7.496-7.534 1.508-13.556-5.988-6.022-13.965-.014-13.965-.014s4.54-.185 4.148 3.129c0 0-3.503 1.334-6.258 3.557 0 0 1.353.144 2.28 1.539 0 0-4.12 2.858-3.958 5.323.21 3.165-1.859 8.094-3.613 8.678Z" fill="url(#f)"/>
  <path d="M13.803 57.68c2.563-.647 4.82-6.675 8.415-6.342 1.986.184 1.526 1.91 1.526 1.91s1.379-1.975 1.695-4.645c.316-2.67 5.256-1.757 5.037 3.251 0 0 5.432-7.103-1.156-11.615-7.27-4.978-12.58 1.27-12.58 1.27s4.966-1.663 5.737 2.302c0 0-4.108 1.15-5.62 2.67 0 0 1.758.249 2.178 2.137 0 0-4.049 2.976-3.928 4.16.293 2.854-1.304 4.902-1.304 4.902Z" fill="url(#g)"/>
  <path d="M13.903 49.712C9.96 53.55 15.134 57.672 7.2 63.256c0 0 4.67 1.57 8.895-3.778 1.453-1.84 3.132-2.612 3.132-2.612.575.345.135 2.217-1.906 3.765 0 0 3.184.082 5.174-1.919 1.99-2 3.342-4.88 3.342-4.88 1.362 2.41-2.048 5.461-2.048 5.461s3.22-.843 7.038-4.684c2.97-2.988 5.083-10.412.827-14.692-4.256-4.28-11.861-3.5-15.588.248-1.631 1.64-3.301 4.202-3.516 6.307 0 0 3.138-3.407 4.247-1.971 0 0-5.307 3.226-6.16 6.289 0 0 2.642-1.585 3.266-1.078Z" fill="url(#h)" opacity=".5"/>
  <path d="M13.903 49.712C9.96 53.55 15.134 57.672 7.2 63.256c0 0 4.67 1.57 8.895-3.778 1.453-1.84 3.132-2.612 3.132-2.612.575.345.135 2.217-1.906 3.765 0 0 3.184.082 5.174-1.919 1.99-2 3.342-4.88 3.342-4.88 1.362 2.41-2.048 5.461-2.048 5.461s3.22-.843 7.038-4.684c2.97-2.988 5.083-10.412.827-14.692-4.256-4.28-11.861-3.5-15.588.248-1.631 1.64-3.301 4.202-3.516 6.307 0 0 3.138-3.407 4.247-1.971 0 0-5.307 3.226-6.16 6.289 0 0 2.642-1.585 3.266-1.078Z" fill="url(#i)" opacity=".5"/>
  <path d="M28.825 55.867c3.838-4.112 6.014-11.467 2.005-15.5-4.01-4.031-11.388-.644-14.664 2.398 0 0 2.605-1.107 4.667.221 2.063 1.329-3.82 3.607-5.044 7.223 0 0 5.247-3.168 6.89-1.826 1.644 1.343-.023 5.562-1.599 7.147 0 0 3.759-1.933 5.785-4.43 3.081-3.795 1.96 4.767 1.96 4.767Z" fill="url(#j)"/>
  <path d="M13.903 49.712C9.96 53.55 15.134 57.672 7.2 63.256c0 0 4.67 1.57 8.895-3.778 1.453-1.84 3.132-2.612 3.132-2.612.575.345.135 2.217-1.906 3.765 0 0 3.184.082 5.174-1.919 1.99-2 3.342-4.88 3.342-4.88 1.362 2.41-2.048 5.461-2.048 5.461s3.22-.843 7.038-4.684c2.97-2.988 5.083-10.412.827-14.692-4.256-4.28-11.861-3.5-15.588.248-1.631 1.64-3.301 4.202-3.516 6.307 0 0 3.138-3.407 4.247-1.971 0 0-5.307 3.226-6.16 6.289 0 0 2.642-1.585 3.266-1.078Z" fill="url(#k)" opacity=".5"/>
  <path d="M10.97 52.642c-4.13 1.668-1.47 5.15-3.243 6.944 0 0 2.377-1.307 2.338-3.865-.031-2.084.906-3.08.906-3.08Z" fill="url(#l)" opacity=".5"/>
  <path d="M11.936 64.75c1.058-.126 2.61-2.295 5.275-2.707 0 0-2.177 3.188-5.275 2.708Z" fill="url(#m)"/>
  <path d="M11.936 64.751c1.058-.126 2.847-3.222 5.275-2.708 0 0-2.177 3.188-5.275 2.708Z" fill="url(#n)" opacity=".5"/>
  <path d="M13.903 49.712C9.96 53.55 15.134 57.672 7.2 63.256c0 0 4.67 1.57 8.895-3.778 1.453-1.84 3.132-2.612 3.132-2.612.575.345.135 2.217-1.906 3.765 0 0 3.184.082 5.174-1.919 1.99-2 3.342-4.88 3.342-4.88 1.362 2.41-2.048 5.461-2.048 5.461s3.22-.843 7.038-4.684c2.97-2.988 5.083-10.412.827-14.692-4.256-4.28-11.861-3.5-15.588.248-1.631 1.64-3.301 4.202-3.516 6.307 0 0 3.138-3.407 4.247-1.971 0 0-5.307 3.226-6.16 6.289 0 0 2.642-1.585 3.266-1.078Z" fill="url(#o)" opacity=".5"/>
  <path d="M13.903 49.712C9.96 53.55 15.134 57.672 7.2 63.256c0 0 4.67 1.57 8.895-3.778 1.453-1.84 3.132-2.612 3.132-2.612.575.345.135 2.217-1.906 3.765 0 0 3.184.082 5.174-1.919 1.99-2 3.342-4.88 3.342-4.88 1.362 2.41-2.048 5.461-2.048 5.461s3.22-.843 7.038-4.684c2.97-2.988 5.083-10.412.827-14.692-4.256-4.28-11.861-3.5-15.588.248-1.631 1.64-3.301 4.202-3.516 6.307 0 0 3.138-3.407 4.247-1.971 0 0-5.307 3.226-6.16 6.289 0 0 2.642-1.585 3.266-1.078Z" fill="url(#p)" opacity=".25"/>
  <path d="M13.903 49.712C9.96 53.55 15.134 57.672 7.2 63.256c0 0 4.67 1.57 8.895-3.778 1.453-1.84 3.132-2.612 3.132-2.612.575.345.135 2.217-1.906 3.765 0 0 3.184.082 5.174-1.919 1.99-2 3.342-4.88 3.342-4.88 1.362 2.41-2.048 5.461-2.048 5.461s3.22-.843 7.038-4.684c2.97-2.988 5.083-10.412.827-14.692-4.256-4.28-11.861-3.5-15.588.248-1.631 1.64-3.301 4.202-3.516 6.307 0 0 3.138-3.407 4.247-1.971 0 0-5.307 3.226-6.16 6.289 0 0 2.642-1.585 3.266-1.078Z" fill="url(#q)" opacity=".75"/>
  <path d="M45.726 45.933c-.38-3.779.491-7.791 2.478-11.422l.63-1.15-9.714 6.395-.815 5.872-3.79 3.664c.816 3.19.849 6.302.849 6.302 6.437-3.885 10.362-9.661 10.362-9.661Z" fill="url(#r)"/>
  <path d="M35.364 55.594s-.024-3.158-.85-6.301l1.602-1.547c.488 1.087 1.444 3.518 1.682 6.214-.77.556-1.573 1.126-2.434 1.634Z" fill="url(#s)"/>
  <path d="M45.726 45.933c-.38-3.779.491-7.791 2.478-11.422l.63-1.15-9.714 6.395-.815 5.872-3.79 3.664c.816 3.19.849 6.302.849 6.302 6.437-3.885 10.362-9.661 10.362-9.661Z" fill="url(#t)" opacity=".75"/>
  <path d="M46.671 38.012a21.55 21.55 0 0 1 1.532-3.5l.353-.645-.257-.154-9.18 6.043-.55 3.968c2.094-.854 5.055-2.628 8.102-5.712Z" fill="url(#u)"/>
  <path d="M36.129 23.287a12.4 12.4 0 0 1-.24-.633c-3.619 1.735-7.715 2.214-11.664 1.472 0 0-5.833 3.843-9.41 10.653 0 0 3.338.32 6.832 1.52l3.582-3.885 5.802-.346c1.298-2.894 2.875-6.032 5.098-8.78Z" fill="url(#v)"/>
  <path d="M14.816 34.78s3.338.32 6.832 1.52l1.53-1.662c-1.227-.638-3.893-1.885-6.846-2.397a27.641 27.641 0 0 0-1.516 2.538Z" fill="url(#w)"/>
  <path d="M36.129 23.287a12.4 12.4 0 0 1-.24-.633c-3.619 1.735-7.715 2.214-11.664 1.472 0 0-5.833 3.843-9.41 10.653 0 0 3.338.32 6.832 1.52l3.582-3.885 5.802-.346c1.298-2.894 2.875-6.032 5.098-8.78Z" fill="url(#x)" opacity=".75"/>
  <path d="M35.89 22.654c-1.41 1.092-5.848 5.388-7.39 9.566l2.532-.15c1.297-2.896 3.263-6.102 5.485-8.85l-.627-.566Z" fill="url(#y)"/>
  <path d="M37.418 21.816c1.507 2.46 3.487 4.893 5.702 7.062.105.103.211.206.318.308 1.87 1.792 3.897 3.391 5.942 4.66l-.004.003c.187-.182.375-.361.56-.547 5.312-5.343 8.383-9.343 11.026-14.445-1.888-3.674-4.986-6.79-8.64-8.689-5.073 2.659-9.051 5.746-14.364 11.09-.184.184-.362.372-.542.56 0-.002.001-.002.002-.003Z" fill="url(#z)"/>
  <path d="M60.962 18.856c3.596-6.937 3.14-10.651 2.546-11.248-.594-.597-4.287-1.056-11.186 2.56 3.653 1.898 6.752 5.015 8.64 8.688Z" fill="url(#A)"/>
  <path d="M31.335 39.961c1.91 1.92 3.662 3.319 4.133 3.322 4.273-1.882 9.384-5.037 13.912-9.438-2.045-1.268-4.072-2.867-5.942-4.66a32.966 32.966 0 0 1-.318-.308c-2.214-2.169-4.194-4.602-5.702-7.062-4.384 4.564-7.517 9.726-9.382 14.033.076.528 1.443 2.246 3.3 4.113Z" fill="url(#B)"/>
  <path d="M31.335 39.961c1.91 1.92 3.662 3.319 4.133 3.322 4.273-1.882 9.384-5.037 13.912-9.438-2.045-1.268-4.072-2.867-5.942-4.66a32.966 32.966 0 0 1-.318-.308c-2.214-2.169-4.194-4.602-5.702-7.062-4.384 4.564-7.517 9.726-9.382 14.033.076.528 1.443 2.246 3.3 4.113Z" fill="url(#C)" opacity=".75"/>
  <path d="M43.438 29.186a32.966 32.966 0 0 1-.318-.309c-2.215-2.169-4.195-4.602-5.702-7.062-.11.115-.217.232-.326.348 3.07 5.835 12.428 11.377 5.283 14.32-4.691 1.93-6.792 4.215-7.92 6.253.478.348.836.546 1.012.547 4.273-1.882 9.384-5.038 13.913-9.439-2.045-1.267-4.072-2.866-5.942-4.658Z" fill="url(#D)" opacity=".5"/>
  <path d="M31.335 39.961c-1.857-1.867-3.223-3.585-3.3-4.113l-2.628 1.162c-.31.312 1.422 2.56 3.87 5.02 2.448 2.462 4.684 4.205 4.993 3.893l1.197-2.64c-.47-.003-2.223-1.402-4.132-3.322Z" fill="url(#E)"/>
  <path d="M31.335 39.961c-1.857-1.867-3.223-3.585-3.3-4.113l-2.628 1.162c-.31.312 1.422 2.56 3.87 5.02 2.448 2.462 4.684 4.205 4.993 3.893l1.197-2.64c-.47-.003-2.223-1.402-4.132-3.322Z" fill="url(#F)"/>
  <path d="M60.238 20.208c.025-.05.7-1.303.725-1.352-1.888-3.673-4.987-6.79-8.64-8.689-.05.026-.097.053-.145.079 3.576 2.049 7.631 6.655 8.06 9.962Z" fill="url(#G)"/>
  <path d="M63.508 7.608c-.594-.597-4.287-1.055-11.186 2.56-5.073 2.659-9.051 5.746-14.364 11.089-.184.185-.362.373-.542.56l.002-.002c-4.385 4.564-7.517 9.726-9.382 14.033.076.528 1.443 2.246 3.3 4.113 1.908 1.92 3.66 3.319 4.132 3.322 4.273-1.882 9.384-5.037 13.912-9.438l-.003.003c.187-.181.374-.36.559-.547 5.313-5.342 8.383-9.343 11.027-14.445 3.595-6.937 3.139-10.65 2.545-11.248Z" fill="url(#H)" opacity=".75"/>
  <path d="M27.263 48.613c5.655-4.586 10.087-9.712 10.202-9.845l-.884-.889s-4.612 5.07-10.128 9.93l.81.804Z" fill="url(#I)"/>
  <path d="M36.581 37.88c1.027-1.969 2.767-4.44 4.991-7.1-.055-.051-.11-.1-.163-.152-2.41 2.3-4.794 4.383-6.944 6.222l-2.49 3.676-3.752 3.713c-.65 1.66-1.77 3.57-1.77 3.57 5.516-4.86 10.128-9.93 10.128-9.93Z" fill="url(#J)"/>
  <path d="M28.412 46.043c.004-.005 1.318-2.397 1.197-3.175l-1.386 1.372c-.65 1.66-1.77 3.57-1.77 3.57.669-.589 1.323-1.181 1.96-1.767Z" fill="url(#K)"/>
  <path d="M37.47 38.762c.738-2.265 2.413-4.81 4.542-7.577a29.567 29.567 0 0 1-.44-.405c-2.223 2.66-3.963 5.131-4.99 7.1 0 0-4.612 5.07-10.128 9.93l.81.803c5.73-4.646 10.207-9.851 10.207-9.851Z" fill="url(#L)"/>
  <path d="M27.263 48.613c5.655-4.586 10.087-9.712 10.202-9.845l-.884-.889s-4.612 5.07-10.128 9.93l.81.804Z" fill="url(#M)"/>
  <path d="M36.581 37.88c1.027-1.969 2.767-4.44 4.991-7.1-.055-.051-.11-.1-.163-.152-2.41 2.3-4.794 4.383-6.944 6.222l-2.49 3.676-3.752 3.713c-.65 1.66-1.77 3.57-1.77 3.57 5.516-4.86 10.128-9.93 10.128-9.93Z" fill="url(#N)" opacity=".75"/>
  <path d="M63.508 7.608c-.594-.597-4.287-1.055-11.186 2.56-5.073 2.659-9.051 5.746-14.364 11.089-.184.185-.362.373-.542.56l.002-.002c-4.385 4.564-7.517 9.726-9.382 14.033.076.528 1.443 2.246 3.3 4.113 1.908 1.92 3.66 3.319 4.132 3.322 4.273-1.882 9.384-5.037 13.912-9.438l-.003.003c.187-.181.374-.36.559-.547 5.313-5.342 8.383-9.343 11.027-14.445 3.595-6.937 3.139-10.65 2.545-11.248Z" fill="url(#O)" opacity=".75"/>
  <g fill="#000" opacity=".16">
    <path d="M59.464 21.594a.042.042 0 0 1-.034-.018 37.952 37.952 0 0 0-1.396-1.845.042.042 0 0 1 .006-.06.042.042 0 0 1 .06.007c.493.614.95 1.22 1.398 1.85a.043.043 0 0 1-.01.059.052.052 0 0 1-.024.007Z" opacity=".16"/>
    <path d="M59.935 16.976a.043.043 0 0 0-.013-.06.043.043 0 0 0-.058.014c-.105.166-.213.336-.324.508-2.829 4.376-5.755 7.95-10.424 12.732a36.149 36.149 0 0 1-4.347-3.72 36.935 36.935 0 0 1-2.556-2.868c4.808-4.781 8.394-7.947 12.484-11.018.225-.17.447-.333.663-.492a.043.043 0 0 0 .009-.06.041.041 0 0 0-.06-.008l-.662.492c-4.091 3.072-7.68 6.24-12.488 11.022-1.005-1.253-1.908-2.534-2.654-3.81a.041.041 0 0 0-.058-.014.042.042 0 0 0-.015.058c.75 1.281 1.658 2.569 2.667 3.826-.307.306-.603.597-.92.917-.146.146-.288.292-.43.438l-.117.118a79.223 79.223 0 0 0-.523.54.043.043 0 0 0 .03.072c.01 0 .022-.005.03-.014l.525-.54.002-.002.112-.114.43-.437c.316-.319.61-.608.916-.912.793.982 1.642 1.95 2.556 2.869a36.201 36.201 0 0 0 4.371 3.737c.002.007-.005.014 0 .02.008.008.02.012.03.012.003 0 .005-.003.008-.004a30.22 30.22 0 0 0 2.317 1.544.042.042 0 0 0 .058-.016.043.043 0 0 0-.014-.058 29.998 29.998 0 0 1-2.294-1.526c4.669-4.782 7.596-8.359 10.426-12.738l.323-.508Z" opacity=".16"/>
  </g>
  <path d="M34.276 42.086c3.882-2.275 8.672-5.754 13.176-10.18l-.004.003" fill="url(#P)" opacity=".75"/>
  <path d="M51.637 22.28c-2.163 2.005-5.361 2.021-7.143.036-1.782-1.985-1.473-5.22.69-7.224 2.164-2.005 5.362-2.02 7.144-.035s1.473 5.22-.69 7.224Z" fill="url(#Q)"/>
  <path d="M50.706 21.16c-1.773 1.644-4.395 1.657-5.856.03-1.461-1.628-1.208-4.28.566-5.923 1.773-1.643 4.396-1.656 5.857-.029 1.46 1.627 1.207 4.279-.567 5.922Z" fill="url(#R)"/>
  <path d="M50.299 20.72c-1.582 1.465-3.92 1.477-5.222.026-1.303-1.451-1.077-3.816.504-5.28 1.581-1.466 3.92-1.478 5.222-.027 1.303 1.45 1.078 3.815-.504 5.28Z" fill="url(#S)"/>
  <path d="M50.299 20.72c-1.582 1.465-3.92 1.477-5.222.026-1.303-1.451-1.077-3.816.504-5.28 1.581-1.466 3.92-1.478 5.222-.027 1.303 1.45 1.078 3.815-.504 5.28Z" fill="url(#T)" opacity=".5"/>
  <path d="M50.488 16.51c.598.666.918 1.494.981 2.36.373-1.202.168-2.504-.665-3.432-1.303-1.45-3.64-1.44-5.223.026a4.32 4.32 0 0 0-.43.468c1.783-1.084 4.014-.895 5.337.579Z" fill="#000" opacity=".5"/>
  <path d="M50.804 15.438c-1.303-1.45-3.64-1.44-5.222.026-1.582 1.466-1.808 3.83-.505 5.28.136.151.268.263.186.186-1.166-1.172-.809-3.576.695-5.088 1.194-1.2 3.523-1.653 4.853-.395" fill="url(#U)"/>
  <path d="m50.804 15.438.007.01c-1.33-1.258-3.659-.806-4.853.395-1.438 1.446-1.824 3.703-.837 4.923.156.08.216.235.142.165-.051-.051-.096-.108-.142-.165l-.044-.02c1.302 1.45 3.64 1.439 5.222-.027 1.581-1.465 1.808-3.829.505-5.28Z" fill="url(#V)" opacity=".5"/>
  <path d="M60.986 18.874a.063.063 0 0 1-.056-.035c-1.89-3.676-4.94-6.745-8.587-8.64a.064.064 0 0 1 .058-.113 20.364 20.364 0 0 1 8.641 8.695.064.064 0 0 1-.027.086.064.064 0 0 1-.029.007ZM49.38 33.908a.059.059 0 0 1-.033-.01c-2.004-1.242-4.063-2.856-5.953-4.667a31.97 31.97 0 0 1-.319-.309c-2.251-2.204-4.226-4.65-5.711-7.074a.063.063 0 0 1 .108-.067c1.48 2.415 3.448 4.853 5.692 7.05l.317.308c1.884 1.805 3.935 3.413 5.932 4.65.03.019.039.058.02.088a.062.062 0 0 1-.053.031Z" fill="#008EE6"/>
  <defs>
    <linearGradient gradientUnits="userSpaceOnUse" id="a" x1="30.712" x2="3.695" y1="37.692" y2="73.16">
      <stop stop-color="red"/>
      <stop offset=".232" stop-color="#FF1500"/>
      <stop offset=".737" stop-color="#FF3D00"/>
      <stop offset=".999" stop-color="#FF4C00"/>
    </linearGradient>
    <linearGradient gradientUnits="userSpaceOnUse" id="b" x1="25.559" x2="-1.132" y1="34.341" y2="69.382">
      <stop stop-color="red"/>
      <stop offset=".232" stop-color="#FF1500"/>
      <stop offset=".737" stop-color="#FF3D00"/>
      <stop offset=".999" stop-color="#FF4C00"/>
    </linearGradient>
    <linearGradient gradientUnits="userSpaceOnUse" id="c" x1="33.127" x2="5.747" y1="38.769" y2="74.712">
      <stop stop-color="red"/>
      <stop offset=".232" stop-color="#FF1500"/>
      <stop offset=".737" stop-color="#FF3D00"/>
      <stop offset=".999" stop-color="#FF4C00"/>
    </linearGradient>
    <linearGradient gradientUnits="userSpaceOnUse" id="d" x1="25.397" x2="7.963" y1="43.276" y2="79.293">
      <stop stop-color="#FF8000"/>
      <stop offset=".639" stop-color="#FF5B00"/>
      <stop offset=".999" stop-color="#FF4C00"/>
    </linearGradient>
    <linearGradient gradientUnits="userSpaceOnUse" id="f" x1="11.387" x2="27.094" y1="64.775" y2="42.379">
      <stop stop-color="#FF8000"/>
      <stop offset=".023" stop-color="#FE7F02" stop-opacity=".977"/>
      <stop offset=".666" stop-color="#ED582A" stop-opacity=".334"/>
      <stop offset="1" stop-color="#E74939" stop-opacity="0"/>
    </linearGradient>
    <linearGradient gradientUnits="userSpaceOnUse" id="g" x1="29.298" x2="15.13" y1="41.525" y2="54.148">
      <stop stop-color="#FFBC47"/>
      <stop offset=".187" stop-color="#FFB137" stop-opacity=".813"/>
      <stop offset=".722" stop-color="#FF940F" stop-opacity=".278"/>
      <stop offset="1" stop-color="#FF8900" stop-opacity="0"/>
    </linearGradient>
    <linearGradient gradientUnits="userSpaceOnUse" id="r" x1="29.363" x2="46.743" y1="57.194" y2="38.554">
      <stop stop-color="#BD2719"/>
      <stop offset=".215" stop-color="#D41A10"/>
      <stop offset=".505" stop-color="#EC0C07"/>
      <stop offset=".774" stop-color="#FA0302"/>
      <stop offset="1" stop-color="red"/>
    </linearGradient>
    <linearGradient gradientUnits="userSpaceOnUse" id="s" x1="39.407" x2="33.957" y1="48.416" y2="53.738">
      <stop stop-color="#FC8D41"/>
      <stop offset=".09" stop-color="#FC7837"/>
      <stop offset=".294" stop-color="#FD4D24"/>
      <stop offset=".492" stop-color="#FE2C14"/>
      <stop offset=".68" stop-color="#FF1409"/>
      <stop offset=".854" stop-color="#FF0502"/>
      <stop offset="1" stop-color="red"/>
    </linearGradient>
    <linearGradient gradientUnits="userSpaceOnUse" id="u" x1="39.811" x2="66.762" y1="42.478" y2="11.416">
      <stop stop-color="#BD2719"/>
      <stop offset=".215" stop-color="#D41A10"/>
      <stop offset=".505" stop-color="#EC0C07"/>
      <stop offset=".774" stop-color="#FA0302"/>
      <stop offset="1" stop-color="red"/>
    </linearGradient>
    <linearGradient gradientUnits="userSpaceOnUse" id="v" x1="12.741" x2="29.092" y1="35.445" y2="27.465">
      <stop stop-color="#BD2719"/>
      <stop offset=".215" stop-color="#D41A10"/>
      <stop offset=".505" stop-color="#EC0C07"/>
      <stop offset=".774" stop-color="#FA0302"/>
      <stop offset="1" stop-color="red"/>
    </linearGradient>
    <linearGradient gradientUnits="userSpaceOnUse" id="w" x1="22.055" x2="16.892" y1="30.691" y2="36.794">
      <stop stop-color="#FC8D41"/>
      <stop offset=".09" stop-color="#FC7837"/>
      <stop offset=".294" stop-color="#FD4D24"/>
      <stop offset=".492" stop-color="#FE2C14"/>
      <stop offset=".68" stop-color="#FF1409"/>
      <stop offset=".854" stop-color="#FF0502"/>
      <stop offset="1" stop-color="red"/>
    </linearGradient>
    <linearGradient gradientUnits="userSpaceOnUse" id="y" x1="35.303" x2="8.989" y1="27.29" y2="28.514">
      <stop stop-color="#BD2719"/>
      <stop offset=".215" stop-color="#D41A10"/>
      <stop offset=".505" stop-color="#EC0C07"/>
      <stop offset=".774" stop-color="#FA0302"/>
      <stop offset="1" stop-color="red"/>
    </linearGradient>
    <linearGradient gradientUnits="userSpaceOnUse" id="z" x1="44.823" x2="55.472" y1="15.945" y2="26.535">
      <stop stop-color="#BBCACC"/>
      <stop offset=".372" stop-color="#fff"/>
      <stop offset="1" stop-color="#99AFB3"/>
    </linearGradient>
    <linearGradient gradientUnits="userSpaceOnUse" id="A" x1="62.773" x2="56.968" y1="15.225" y2="7.732">
      <stop stop-color="#008EE6"/>
      <stop offset=".688" stop-color="#80DAFE"/>
      <stop offset=".733" stop-color="#76D5FB"/>
      <stop offset=".807" stop-color="#5CC8F3"/>
      <stop offset=".903" stop-color="#32B2E6"/>
      <stop offset="1" stop-color="#0099D6"/>
    </linearGradient>
    <linearGradient gradientUnits="userSpaceOnUse" id="B" x1="42.49" x2="30.389" y1="39.003" y2="27.034">
      <stop stop-color="#008EE6"/>
      <stop offset=".688" stop-color="#80DAFE"/>
      <stop offset=".733" stop-color="#76D5FB"/>
      <stop offset=".807" stop-color="#5CC8F3"/>
      <stop offset=".903" stop-color="#32B2E6"/>
      <stop offset="1" stop-color="#0099D6"/>
    </linearGradient>
    <linearGradient gradientUnits="userSpaceOnUse" id="E" x1="26.908" x2="34.51" y1="35.746" y2="45.671">
      <stop/>
      <stop offset=".196" stop-color="#4D4D4C"/>
      <stop offset=".765"/>
    </linearGradient>
    <linearGradient gradientUnits="userSpaceOnUse" id="F" x1="26.908" x2="34.51" y1="35.746" y2="45.671">
      <stop stop-opacity="0"/>
      <stop offset=".198" stop-color="#CFDCDE" stop-opacity=".5"/>
      <stop offset=".765" stop-opacity="0"/>
    </linearGradient>
    <linearGradient gradientUnits="userSpaceOnUse" id="G" x1="42.716" x2="60.035" y1="12.073" y2="16.006">
      <stop stop-color="#BBCACC"/>
      <stop offset=".372" stop-color="#fff"/>
      <stop offset="1" stop-color="#99AFB3"/>
    </linearGradient>
    <linearGradient gradientUnits="userSpaceOnUse" id="I" x1="25.992" x2="45.948" y1="47.091" y2="34.296">
      <stop stop-color="#BD2719"/>
      <stop offset=".215" stop-color="#D41A10"/>
      <stop offset=".505" stop-color="#EC0C07"/>
      <stop offset=".774" stop-color="#FA0302"/>
      <stop offset="1" stop-color="red"/>
    </linearGradient>
    <linearGradient gradientUnits="userSpaceOnUse" id="J" x1="22.761" x2="33.062" y1="47.771" y2="39.972">
      <stop stop-color="#BD2719"/>
      <stop offset=".215" stop-color="#D41A10"/>
      <stop offset=".505" stop-color="#EC0C07"/>
      <stop offset=".774" stop-color="#FA0302"/>
      <stop offset="1" stop-color="red"/>
    </linearGradient>
    <linearGradient gradientUnits="userSpaceOnUse" id="K" x1="32.52" x2="26.617" y1="41.159" y2="46.642">
      <stop stop-color="#FC8D41"/>
      <stop offset=".09" stop-color="#FC7837"/>
      <stop offset=".294" stop-color="#FD4D24"/>
      <stop offset=".492" stop-color="#FE2C14"/>
      <stop offset=".68" stop-color="#FF1409"/>
      <stop offset=".854" stop-color="#FF0502"/>
      <stop offset="1" stop-color="red"/>
    </linearGradient>
    <linearGradient gradientUnits="userSpaceOnUse" id="L" x1="32.327" x2="39.356" y1="44.981" y2="24.98">
      <stop stop-color="#BD2719"/>
      <stop offset=".215" stop-color="#D41A10"/>
      <stop offset=".505" stop-color="#EC0C07"/>
      <stop offset=".774" stop-color="#FA0302"/>
      <stop offset="1" stop-color="red"/>
    </linearGradient>
    <linearGradient gradientUnits="userSpaceOnUse" id="M" x1="25.992" x2="45.948" y1="47.091" y2="34.296">
      <stop stop-color="#BD2719"/>
      <stop offset=".215" stop-color="#D41A10"/>
      <stop offset=".505" stop-color="#EC0C07"/>
      <stop offset=".774" stop-color="#FA0302"/>
      <stop offset="1" stop-color="red"/>
    </linearGradient>
    <linearGradient gradientUnits="userSpaceOnUse" id="Q" x1="45.623" x2="51.229" y1="24.723" y2="12.718">
      <stop stop-color="#BD2719"/>
      <stop offset=".215" stop-color="#D41A10"/>
      <stop offset=".505" stop-color="#EC0C07"/>
      <stop offset=".774" stop-color="#FA0302"/>
      <stop offset="1" stop-color="red"/>
    </linearGradient>
    <linearGradient gradientUnits="userSpaceOnUse" id="R" x1="49.582" x2="46.526" y1="13.136" y2="23.225">
      <stop stop-color="#FC8D41"/>
      <stop offset=".09" stop-color="#FC7837"/>
      <stop offset=".294" stop-color="#FD4D24"/>
      <stop offset=".492" stop-color="#FE2C14"/>
      <stop offset=".68" stop-color="#FF1409"/>
      <stop offset=".854" stop-color="#FF0502"/>
      <stop offset="1" stop-color="red"/>
    </linearGradient>
    <linearGradient gradientUnits="userSpaceOnUse" id="U" x1="47.622" x2="47.992" y1="15.094" y2="8.578">
      <stop stop-color="#BD2719"/>
      <stop offset=".042" stop-color="#B42717"/>
      <stop offset=".257" stop-color="#89250F"/>
      <stop offset=".465" stop-color="#682408"/>
      <stop offset=".663" stop-color="#502304"/>
      <stop offset=".846" stop-color="#412201"/>
      <stop offset="1" stop-color="#3C2200"/>
    </linearGradient>
    <radialGradient cx="0" cy="0" gradientTransform="rotate(-134.84 13.307 30.892) scale(13.9723 17.7423)" gradientUnits="userSpaceOnUse" id="e" r="1">
      <stop offset=".001" stop-color="#FFED1C" stop-opacity=".6"/>
      <stop offset=".948" stop-color="#FFED1C" stop-opacity=".026"/>
      <stop offset=".991" stop-color="#FFED1C" stop-opacity="0"/>
    </radialGradient>
    <radialGradient cx="0" cy="0" gradientTransform="matrix(-7.62125 -7.66393 7.8995 -7.8555 25.787 45.225)" gradientUnits="userSpaceOnUse" id="h" r="1">
      <stop offset=".001" stop-color="#FFBC47"/>
      <stop offset=".294" stop-color="#FFBF4B" stop-opacity=".707"/>
      <stop offset=".562" stop-color="#FEC656" stop-opacity=".438"/>
      <stop offset=".82" stop-color="#FCD368" stop-opacity=".18"/>
      <stop offset="1" stop-color="#FBE07A" stop-opacity="0"/>
    </radialGradient>
    <radialGradient cx="0" cy="0" gradientTransform="rotate(-134.84 22.181 17.533) scale(10.4752 10.7972)" gradientUnits="userSpaceOnUse" id="i" r="1">
      <stop offset=".001" stop-color="#fff"/>
      <stop offset="1" stop-color="#fff" stop-opacity="0"/>
    </radialGradient>
    <radialGradient cx="0" cy="0" gradientTransform="matrix(-9.07368 -9.1245 13.49192 -13.41678 30.361 47.139)" gradientUnits="userSpaceOnUse" id="j" r="1">
      <stop offset=".001" stop-color="#FFED1C" stop-opacity=".6"/>
      <stop offset=".948" stop-color="#FFED1C" stop-opacity=".026"/>
      <stop offset=".991" stop-color="#FFED1C" stop-opacity="0"/>
    </radialGradient>
    <radialGradient cx="0" cy="0" gradientTransform="rotate(-42.887 70.774 -9.519) scale(5.1624 3.30387)" gradientUnits="userSpaceOnUse" id="k" r="1">
      <stop offset=".001" stop-color="#fff"/>
      <stop offset="1" stop-color="#fff" stop-opacity="0"/>
    </radialGradient>
    <radialGradient cx="0" cy="0" gradientTransform="matrix(-3.2551 -3.27333 4.15655 -4.1334 8.024 59.898)" gradientUnits="userSpaceOnUse" id="l" r="1">
      <stop offset=".001" stop-color="#FFED1C"/>
      <stop offset=".2" stop-color="#FFEE2B" stop-opacity=".801"/>
      <stop offset=".584" stop-color="#FFF254" stop-opacity=".417"/>
      <stop offset="1" stop-color="#FFF686" stop-opacity="0"/>
    </radialGradient>
    <radialGradient cx="0" cy="0" gradientTransform="rotate(162.506 2.821 32.831) scale(4.45416 .90538)" gradientUnits="userSpaceOnUse" id="m" r="1">
      <stop offset=".001" stop-color="#FFED1C" stop-opacity=".6"/>
      <stop offset=".948" stop-color="#FFED1C" stop-opacity=".026"/>
      <stop offset=".991" stop-color="#FFED1C" stop-opacity="0"/>
    </radialGradient>
    <radialGradient cx="0" cy="0" gradientTransform="matrix(3.20595 -2.8044 .8917 1.01937 12.233 65.41)" gradientUnits="userSpaceOnUse" id="n" r="1">
      <stop offset=".001" stop-color="#FFED1C"/>
      <stop offset=".2" stop-color="#FFEE2B" stop-opacity=".801"/>
      <stop offset=".584" stop-color="#FFF254" stop-opacity=".417"/>
      <stop offset="1" stop-color="#FFF686" stop-opacity="0"/>
    </radialGradient>
    <radialGradient cx="0" cy="0" gradientTransform="matrix(-10.15683 -10.21371 12.96962 -12.89738 8.217 61.159)" gradientUnits="userSpaceOnUse" id="o" r="1">
      <stop offset=".001" stop-color="#FF4C00"/>
      <stop offset=".135" stop-color="#FF5B0C" stop-opacity=".866"/>
      <stop offset=".394" stop-color="#FF842C" stop-opacity=".607"/>
      <stop offset=".749" stop-color="#FFC45F" stop-opacity=".251"/>
      <stop offset="1" stop-color="#FFF686" stop-opacity="0"/>
    </radialGradient>
    <radialGradient cx="0" cy="0" gradientTransform="matrix(-5.39109 -5.42128 6.88406 -6.84572 14.047 46.006)" gradientUnits="userSpaceOnUse" id="p" r="1">
      <stop offset=".001" stop-color="#FFED1C"/>
      <stop offset=".2" stop-color="#FFEE2B" stop-opacity=".801"/>
      <stop offset=".584" stop-color="#FFF254" stop-opacity=".417"/>
      <stop offset="1" stop-color="#FFF686" stop-opacity="0"/>
    </radialGradient>
    <radialGradient cx="0" cy="0" gradientTransform="rotate(-134.84 22.327 17.904) scale(15.9878 20.3016)" gradientUnits="userSpaceOnUse" id="q" r="1">
      <stop offset=".001" stop-color="#FFED1C"/>
      <stop offset=".2" stop-color="#FFEE2B" stop-opacity=".801"/>
      <stop offset=".584" stop-color="#FFF254" stop-opacity=".417"/>
      <stop offset="1" stop-color="#FFF686" stop-opacity="0"/>
    </radialGradient>
    <radialGradient cx="0" cy="0" gradientTransform="rotate(45.16 -52.487 59.722) scale(23.4398 23.4394)" gradientUnits="userSpaceOnUse" id="t" r="1">
      <stop offset=".001" stop-color="#FFED1C"/>
      <stop offset=".2" stop-color="#FFEE2B" stop-opacity=".801"/>
      <stop offset=".584" stop-color="#FFF254" stop-opacity=".417"/>
      <stop offset="1" stop-color="#FFF686" stop-opacity="0"/>
    </radialGradient>
    <radialGradient cx="0" cy="0" gradientTransform="matrix(17.77749 17.87724 -17.87696 17.7772 24.548 45.484)" gradientUnits="userSpaceOnUse" id="x" r="1">
      <stop offset=".001" stop-color="#FFED1C"/>
      <stop offset=".2" stop-color="#FFEE2B" stop-opacity=".801"/>
      <stop offset=".584" stop-color="#FFF254" stop-opacity=".417"/>
      <stop offset="1" stop-color="#FFF686" stop-opacity="0"/>
    </radialGradient>
    <radialGradient cx="0" cy="0" gradientTransform="matrix(8.09676 8.14217 -14.90233 14.81923 34.318 42.997)" gradientUnits="userSpaceOnUse" id="C" r="1">
      <stop stop-opacity=".75"/>
      <stop offset="1" stop-opacity="0"/>
    </radialGradient>
    <radialGradient cx="0" cy="0" gradientTransform="rotate(45.16 -24.605 77.449) scale(11.4827 21.0164)" gradientUnits="userSpaceOnUse" id="D" r="1">
      <stop stop-opacity=".75"/>
      <stop offset="1" stop-opacity="0"/>
    </radialGradient>
    <radialGradient cx="0" cy="0" gradientTransform="matrix(5.29341 5.18268 -16.78542 17.14406 47.856 33.884)" gradientUnits="userSpaceOnUse" id="H" r="1">
      <stop stop-color="#440063" stop-opacity=".75"/>
      <stop offset="1" stop-color="#420061" stop-opacity="0"/>
    </radialGradient>
    <radialGradient cx="0" cy="0" gradientTransform="matrix(13.68048 -11.16023 3.74676 4.59287 25.84 45.355)" gradientUnits="userSpaceOnUse" id="N" r="1">
      <stop offset=".001" stop-color="#FFED1C"/>
      <stop offset=".2" stop-color="#FFEE2B" stop-opacity=".801"/>
      <stop offset=".584" stop-color="#FFF254" stop-opacity=".417"/>
      <stop offset="1" stop-color="#FFF686" stop-opacity="0"/>
    </radialGradient>
    <radialGradient cx="0" cy="0" gradientTransform="matrix(5.29341 5.18268 -16.78542 17.14406 42.745 21.77)" gradientUnits="userSpaceOnUse" id="O" r="1">
      <stop stop-color="#fff" stop-opacity=".5"/>
      <stop offset="1" stop-color="#fff" stop-opacity="0"/>
    </radialGradient>
    <radialGradient cx="0" cy="0" gradientTransform="matrix(1.2933 1.25 -6.00321 6.21117 41.108 38.77)" gradientUnits="userSpaceOnUse" id="P" r="1">
      <stop stop-color="#440063" stop-opacity=".75"/>
      <stop offset="1" stop-color="#420061" stop-opacity="0"/>
    </radialGradient>
    <radialGradient cx="0" cy="0" gradientTransform="rotate(45.157 1.35 65.072) scale(9.7965 9.79568)" gradientUnits="userSpaceOnUse" id="S" r="1">
      <stop stop-color="#512D00"/>
      <stop offset="1"/>
    </radialGradient>
    <radialGradient cx="0" cy="0" gradientTransform="matrix(8.57066 0 0 8.61878 48.416 16.306)" gradientUnits="userSpaceOnUse" id="T" r="1">
      <stop offset=".487" stop-color="#F5CBC0" stop-opacity="0"/>
      <stop offset="1" stop-color="#E67E62"/>
    </radialGradient>
    <radialGradient cx="0" cy="0" gradientTransform="matrix(11.6221 0 0 11.6873 36.325 14.195)" gradientUnits="userSpaceOnUse" id="V" r="1">
      <stop stop-color="#fff" stop-opacity=".5"/>
      <stop offset="1" stop-color="#fff" stop-opacity="0"/>
    </radialGradient>
  </defs>
</svg>
