<svg fill="none" viewBox="0 0 30 30" xmlns="http://www.w3.org/2000/svg">
  <path d="M15 6.223c-4.973 0-9 4.03-9 9a8.998 8.998 0 0 0 6.154 8.539c.45.084.615-.194.615-.433 0-.214-.008-.78-.011-1.53-2.504.543-3.032-1.208-3.032-1.208-.41-1.039-1.001-1.316-1.001-1.316-.815-.558.063-.547.063-.547.903.063 1.378.927 1.378.927.803 1.377 2.107.979 2.621.749.081-.582.313-.979.57-1.204-1.998-.225-4.099-.999-4.099-4.447 0-.983.349-1.786.926-2.415-.101-.228-.405-1.143.079-2.382 0 0 .754-.242 2.475.922.72-.2 1.485-.3 2.25-.304a8.63 8.63 0 0 1 2.25.304c1.71-1.164 2.464-.922 2.464-.922.483 1.24.18 2.154.09 2.382.573.63.922 1.432.922 2.415 0 3.457-2.104 4.218-4.106 4.44.315.27.607.822.607 1.665 0 1.204-.01 2.171-.01 2.464 0 .236.157.518.618.428A8.969 8.969 0 0 0 24 15.223a9 9 0 0 0-9-9Z" fill="#181717"/>
</svg>
