<svg fill="none" viewBox="0 0 30 30" xmlns="http://www.w3.org/2000/svg">
  <path d="M15 6c-2.445 0-2.75.011-3.71.054-.959.045-1.611.196-2.185.418A4.407 4.407 0 0 0 7.51 7.51c-.5.5-.809 1.002-1.037 1.595-.223.574-.375 1.226-.419 2.185C6.009 12.25 6 12.555 6 15c0 2.445.011 2.75.054 3.71.045.958.196 1.611.418 2.185.23.591.538 1.094 1.038 1.595.5.499 1.002.809 1.595 1.038.575.222 1.227.374 2.185.418.96.045 1.265.054 3.71.054 2.445 0 2.75-.011 3.71-.054.958-.045 1.611-.197 2.185-.419a4.423 4.423 0 0 0 1.595-1.038c.499-.5.809-1 1.038-1.594.222-.574.374-1.227.418-2.185.045-.96.054-1.265.054-3.71 0-2.445-.011-2.75-.054-3.71-.045-.958-.197-1.612-.419-2.185A4.417 4.417 0 0 0 22.49 7.51c-.5-.5-1-.809-1.594-1.037-.574-.223-1.227-.375-2.185-.419C17.75 6.009 17.445 6 15 6Zm0 1.62c2.402 0 2.689.012 3.637.053.878.042 1.354.187 1.67.311.422.163.72.358 1.037.672.314.316.51.615.672 1.036.123.317.27.793.31 1.67.043.95.052 1.235.052 3.638 0 2.403-.01 2.689-.055 3.637-.046.878-.192 1.354-.316 1.67-.168.422-.359.72-.674 1.037-.314.314-.618.51-1.035.672-.315.123-.799.27-1.676.31-.956.043-1.237.052-3.645.052s-2.689-.01-3.644-.055c-.878-.046-1.362-.192-1.677-.316a2.787 2.787 0 0 1-1.034-.674 2.732 2.732 0 0 1-.675-1.035c-.124-.315-.27-.799-.315-1.676-.034-.945-.046-1.237-.046-3.633 0-2.397.012-2.69.046-3.646.046-.877.191-1.36.315-1.675.157-.428.36-.72.675-1.036a2.662 2.662 0 0 1 1.034-.674c.315-.124.788-.27 1.666-.316.956-.033 1.238-.045 3.644-.045L15 7.62Zm0 2.759a4.621 4.621 0 1 0 0 9.242 4.621 4.621 0 0 0 0-9.242ZM15 18a3 3 0 1 1 0-6 3 3 0 1 1 0 6Zm5.884-7.804a1.08 1.08 0 0 1-2.16 0 1.08 1.08 0 0 1 2.16 0Z" fill="#E4405F"/>
</svg>
