<svg fill="none" viewBox="0 0 30 30" xmlns="http://www.w3.org/2000/svg">
  <path d="M20.631 20.635h-2.369v-3.713c0-.885-.018-2.025-1.235-2.025-1.235 0-1.424.964-1.424 1.96v3.778h-2.369V13h2.276v1.04h.03c.319-.6 1.092-1.233 2.247-1.233 2.401 0 2.845 1.58 2.845 3.637v4.19Zm-10.073-8.68a1.375 1.375 0 0 1-1.375-1.376 1.376 1.376 0 1 1 1.375 1.377Zm1.188 8.68H9.37V13h2.376v7.635ZM21.816 7H8.182C7.528 7 7 7.516 7 8.153v13.694C7 22.485 7.528 23 8.18 23h13.635c.652 0 1.185-.515 1.185-1.153V8.153C23 7.516 22.467 7 21.815 7h.002Z" fill="#0A66C2"/>
</svg>
