<svg fill="none" viewBox="0 0 30 30" xmlns="http://www.w3.org/2000/svg">
  <path d="M23.965 9.743a7.5 7.5 0 0 1-2.119.58 3.719 3.719 0 0 0 1.622-2.041 7.623 7.623 0 0 1-2.345.888 3.69 3.69 0 0 0-6.288 3.361A10.453 10.453 0 0 1 7.23 8.687a3.617 3.617 0 0 0-.5 1.856 3.69 3.69 0 0 0 1.641 3.072 3.68 3.68 0 0 1-1.67-.462v.045a3.692 3.692 0 0 0 2.959 3.62 3.746 3.746 0 0 1-1.659.064 3.702 3.702 0 0 0 3.453 2.563 7.4 7.4 0 0 1-4.577 1.578c-.292 0-.584-.017-.877-.05a10.496 10.496 0 0 0 5.668 1.657c6.79 0 10.498-5.622 10.498-10.489 0-.157 0-.315-.011-.472A7.45 7.45 0 0 0 24 9.758l-.035-.015Z" fill="#1DA1F2"/>
</svg>
