<svg fill="none" viewBox="0 0 24 24" xmlns="http://www.w3.org/2000/svg">
  <path clip-rule="evenodd" d="M14.136 1.2a3.61 3.61 0 0 0-4.272 0L8.489 2.21a2.11 2.11 0 0 1-.93.384l-1.685.259a3.61 3.61 0 0 0-3.021 3.02l-.26 1.687a2.11 2.11 0 0 1-.383.929L1.2 9.864a3.61 3.61 0 0 0 0 4.272l1.01 1.375c.2.274.333.593.384.929l.259 1.686a3.61 3.61 0 0 0 3.02 3.021l1.687.259c.336.051.655.183.929.384l1.375 1.01a3.61 3.61 0 0 0 4.272 0l1.375-1.01a2.11 2.11 0 0 1 .929-.384l1.686-.259a3.61 3.61 0 0 0 3.02-3.02l.26-1.687a2.11 2.11 0 0 1 .384-.929l1.01-1.375a3.61 3.61 0 0 0 0-4.272l-1.01-1.375a2.111 2.111 0 0 1-.384-.929l-.26-1.686a3.61 3.61 0 0 0-3.02-3.021l-1.686-.259a2.11 2.11 0 0 1-.93-.384L14.137 1.2Zm-3.384 1.209a2.11 2.11 0 0 1 2.496 0l1.376 1.01a3.61 3.61 0 0 0 1.589.658l1.686.258a2.11 2.11 0 0 1 1.765 1.766l.26 1.686a3.61 3.61 0 0 0 .657 1.59l1.01 1.375a2.11 2.11 0 0 1 0 2.496l-1.01 1.376a3.611 3.611 0 0 0-.658 1.589l-.258 1.686a2.11 2.11 0 0 1-1.766 1.765l-1.686.26a3.611 3.611 0 0 0-1.59.657l-1.375 1.01a2.11 2.11 0 0 1-2.496 0l-1.376-1.01a3.61 3.61 0 0 0-1.59-.658l-1.685-.258a2.11 2.11 0 0 1-1.766-1.766l-.258-1.686a3.61 3.61 0 0 0-.658-1.59l-1.01-1.375a2.11 2.11 0 0 1 0-2.496l1.01-1.376a3.61 3.61 0 0 0 .658-1.589l.258-1.686A2.11 2.11 0 0 1 6.1 4.335l1.686-.258a3.61 3.61 0 0 0 1.59-.658l1.375-1.01Z" fill="#E56B6F" fill-rule="evenodd" stroke="#E56B6F"/>
  <path d="M17.261 9.261a.75.75 0 0 0-1.06-1.06l-5.47 5.47-2.47-2.47a.75.75 0 0 0-1.06 1.06l3 3a.75.75 0 0 0 1.06 0l6-6Z" fill="#E56B6F" stroke="#E56B6F"/>
</svg>
